<svg xmlns="http://www.w3.org/2000/svg" xmlns:xlink="http://www.w3.org/1999/xlink" width="800" zoomAndPan="magnify" viewBox="0 0 600 74.999997" height="100" preserveAspectRatio="xMidYMid meet" version="1.0"><defs><g/></defs><rect x="-60" width="720" fill="#ffffff" y="-7.5" height="89.999996" fill-opacity="1"/><rect x="-60" width="720" fill="#ffffff" y="-7.5" height="89.999996" fill-opacity="1"/><g fill="#000000" fill-opacity="1"><g transform="translate(0.425641, 64.118497)"><g><path d="M 56.28125 29.890625 L -2.21875 29.890625 L -2.21875 -82.859375 L 56.28125 -82.859375 Z M 12.546875 -42.171875 C 12.546875 -41.242188 12.53125 -40.425781 12.5 -39.71875 C 12.46875 -39.007812 12.144531 -37.640625 11.53125 -35.609375 C 11.40625 -34.628906 11.359375 -33.03125 11.390625 -30.8125 C 11.421875 -28.601562 11.53125 -26.328125 11.71875 -23.984375 C 11.90625 -21.648438 12.070312 -19.5625 12.21875 -17.71875 C 12.375 -15.875 12.453125 -14.796875 12.453125 -14.484375 C 12.453125 -13.929688 12.5 -12.882812 12.59375 -11.34375 C 12.6875 -9.8125 12.734375 -8.675781 12.734375 -7.9375 C 12.734375 -7.5 12.804688 -7.019531 12.953125 -6.5 C 13.109375 -5.976562 13.539062 -5.488281 14.25 -5.03125 C 14.957031 -4.570312 16.066406 -4.125 17.578125 -3.6875 C 19.085938 -3.257812 21.222656 -3.046875 23.984375 -3.046875 C 29.148438 -3.046875 32.976562 -4.382812 35.46875 -7.0625 C 37.96875 -9.738281 39.984375 -13.070312 41.515625 -17.0625 C 42.253906 -18.96875 42.578125 -21.304688 42.484375 -24.078125 C 42.390625 -26.847656 42.035156 -29.570312 41.421875 -32.25 C 40.804688 -34.925781 40.082031 -37.351562 39.25 -39.53125 C 38.425781 -41.71875 37.582031 -43.269531 36.71875 -44.1875 C 35.863281 -45.175781 34.847656 -45.960938 33.671875 -46.546875 C 32.503906 -47.128906 31.304688 -47.570312 30.078125 -47.875 C 28.847656 -48.1875 27.753906 -48.359375 26.796875 -48.390625 C 25.847656 -48.421875 25.160156 -48.40625 24.734375 -48.34375 C 23.992188 -48.039062 22.726562 -47.929688 20.9375 -48.015625 C 19.15625 -48.109375 17.835938 -48.15625 16.984375 -48.15625 C 16.117188 -48.15625 15.269531 -47.957031 14.4375 -47.5625 C 13.601562 -47.164062 13.097656 -46.535156 12.921875 -45.671875 C 12.796875 -45.242188 12.734375 -44.8125 12.734375 -44.375 C 12.609375 -44.070312 12.546875 -43.6875 12.546875 -43.21875 C 12.546875 -42.757812 12.546875 -42.410156 12.546875 -42.171875 Z M 15.875 -43.546875 C 16.851562 -43.117188 17.773438 -42.78125 18.640625 -42.53125 C 20.359375 -42.039062 21.648438 -41.945312 22.515625 -42.25 C 22.816406 -42.375 23.441406 -42.53125 24.390625 -42.71875 C 25.347656 -42.90625 26.378906 -43 27.484375 -43 C 28.597656 -43 29.675781 -42.8125 30.71875 -42.4375 C 31.769531 -42.070312 32.722656 -41.488281 33.578125 -40.6875 C 34.191406 -39.820312 34.945312 -38.453125 35.84375 -36.578125 C 36.738281 -34.703125 37.460938 -32.640625 38.015625 -30.390625 C 38.566406 -28.148438 38.796875 -25.722656 38.703125 -23.109375 C 38.609375 -20.492188 37.945312 -17.988281 36.71875 -15.59375 C 35.488281 -13.257812 34.257812 -11.535156 33.03125 -10.421875 C 31.800781 -9.316406 30.691406 -8.609375 29.703125 -8.296875 C 28.722656 -7.992188 27.847656 -7.914062 27.078125 -8.0625 C 26.304688 -8.21875 25.738281 -8.328125 25.375 -8.390625 C 24.945312 -8.390625 24.4375 -8.4375 23.84375 -8.53125 C 23.257812 -8.625 22.691406 -8.671875 22.140625 -8.671875 C 21.523438 -8.671875 20.847656 -8.703125 20.109375 -8.765625 C 20.109375 -8.515625 19.988281 -8.332031 19.75 -8.21875 C 19.3125 -7.71875 18.878906 -7.625 18.453125 -7.9375 C 17.898438 -8.238281 17.5 -8.5 17.25 -8.71875 C 17.007812 -8.9375 17.039062 -9.351562 17.34375 -9.96875 C 17.53125 -10.457031 17.679688 -10.75 17.796875 -10.84375 C 17.921875 -10.9375 17.894531 -11.351562 17.71875 -12.09375 C 17.65625 -12.769531 17.453125 -13.753906 17.109375 -15.046875 C 16.773438 -16.335938 16.609375 -17.347656 16.609375 -18.078125 C 16.609375 -18.390625 16.578125 -19.578125 16.515625 -21.640625 C 16.453125 -23.703125 16.359375 -25.945312 16.234375 -28.375 C 16.109375 -30.800781 16.03125 -33.03125 16 -35.0625 C 15.976562 -37.09375 15.96875 -38.414062 15.96875 -39.03125 C 15.96875 -39.519531 15.953125 -39.992188 15.921875 -40.453125 C 15.890625 -40.921875 15.875 -41.398438 15.875 -41.890625 Z M 18.734375 -39.765625 C 18.734375 -34.847656 18.820312 -30.421875 19 -26.484375 C 19.0625 -23.160156 19.109375 -20.113281 19.140625 -17.34375 C 19.171875 -14.570312 19.25 -13.1875 19.375 -13.1875 C 19.5 -13.132812 19.609375 -14.046875 19.703125 -15.921875 C 19.796875 -17.796875 19.882812 -19.945312 19.96875 -22.375 C 20.0625 -24.800781 20.125 -27.117188 20.15625 -29.328125 C 20.1875 -31.546875 20.203125 -32.9375 20.203125 -33.5 C 20.203125 -33.988281 20.203125 -34.585938 20.203125 -35.296875 C 20.203125 -36.003906 20.265625 -36.695312 20.390625 -37.375 C 20.390625 -38.164062 20.421875 -38.929688 20.484375 -39.671875 L 24.734375 -40.140625 C 23.679688 -40.253906 22.722656 -40.3125 21.859375 -40.3125 C 21.128906 -40.3125 20.46875 -40.28125 19.875 -40.21875 C 19.289062 -40.164062 18.910156 -40.015625 18.734375 -39.765625 Z M 44.75 -33.03125 C 45.050781 -30.019531 45.175781 -27.097656 45.125 -24.265625 C 44.9375 -21.742188 44.578125 -19.191406 44.046875 -16.609375 C 43.523438 -14.023438 42.5625 -11.84375 41.15625 -10.0625 C 38.382812 -6.613281 35.90625 -4.363281 33.71875 -3.3125 C 31.539062 -2.269531 29.957031 -1.6875 28.96875 -1.5625 C 28.050781 -1.195312 26.972656 -1.015625 25.734375 -1.015625 L 23.625 -1.015625 C 25.34375 -0.703125 27.1875 -0.703125 29.15625 -1.015625 C 30.757812 -1.203125 32.484375 -1.722656 34.328125 -2.578125 C 36.171875 -3.441406 37.890625 -4.859375 39.484375 -6.828125 C 42.679688 -10.765625 44.570312 -15.023438 45.15625 -19.609375 C 45.75 -24.191406 45.613281 -28.664062 44.75 -33.03125 Z M 44.75 -33.03125 "/></g></g></g><g fill="#000000" fill-opacity="1"><g transform="translate(55.598152, 64.118497)"><g><path d="M 55.828125 29.890625 L -2.578125 29.890625 L -2.578125 -82.859375 L 55.828125 -82.859375 Z M 41.0625 -51.390625 C 40.625 -51.390625 40.050781 -51.144531 39.34375 -50.65625 C 38.644531 -50.164062 38.046875 -49.488281 37.546875 -48.625 C 37.304688 -48.195312 37.15625 -46.953125 37.09375 -44.890625 C 37.03125 -42.828125 37.046875 -40.503906 37.140625 -37.921875 C 37.234375 -35.335938 37.320312 -32.785156 37.40625 -30.265625 C 37.5 -27.742188 37.457031 -25.898438 37.28125 -24.734375 C 37.28125 -23.378906 37.265625 -21.898438 37.234375 -20.296875 C 37.203125 -18.703125 37 -17.195312 36.625 -15.78125 C 36.257812 -14.363281 35.582031 -13.113281 34.59375 -12.03125 C 33.613281 -10.957031 32.140625 -10.238281 30.171875 -9.875 C 28.203125 -9.5625 26.722656 -9.375 25.734375 -9.3125 C 24.753906 -9.25 24.019531 -9.3125 23.53125 -9.5 C 23.039062 -9.6875 22.75 -9.898438 22.65625 -10.140625 C 22.5625 -10.390625 22.359375 -10.640625 22.046875 -10.890625 C 21.492188 -11.316406 21.21875 -11.609375 21.21875 -11.765625 C 21.21875 -11.921875 21.066406 -11.96875 20.765625 -11.90625 C 20.390625 -11.71875 19.941406 -11.898438 19.421875 -12.453125 C 18.898438 -13.003906 18.332031 -13.554688 17.71875 -14.109375 C 17.226562 -14.671875 16.96875 -15.132812 16.9375 -15.5 C 16.90625 -15.863281 16.890625 -16.171875 16.890625 -16.421875 C 16.953125 -16.609375 17.070312 -16.820312 17.25 -17.0625 C 17.4375 -17.3125 17.375 -17.835938 17.0625 -18.640625 C 16.945312 -19.441406 16.765625 -20.363281 16.515625 -21.40625 C 16.265625 -22.445312 16.140625 -23.613281 16.140625 -24.90625 C 16.140625 -25.582031 16.109375 -26.921875 16.046875 -28.921875 C 15.992188 -30.921875 15.96875 -33.007812 15.96875 -35.1875 C 15.96875 -37.375 15.96875 -39.328125 15.96875 -41.046875 C 15.96875 -42.773438 16.023438 -43.765625 16.140625 -44.015625 C 16.265625 -44.316406 16.523438 -44.988281 16.921875 -46.03125 C 17.328125 -47.082031 17.347656 -47.945312 16.984375 -48.625 C 16.242188 -50.40625 15.316406 -51.203125 14.203125 -51.015625 C 13.710938 -50.898438 13.050781 -50.578125 12.21875 -50.046875 C 11.394531 -49.523438 10.796875 -48.925781 10.421875 -48.25 C 10.117188 -47.632812 10.195312 -46.570312 10.65625 -45.0625 C 11.113281 -43.5625 11.34375 -41.976562 11.34375 -40.3125 C 11.34375 -39.820312 11.34375 -38.773438 11.34375 -37.171875 C 11.34375 -35.578125 11.34375 -33.796875 11.34375 -31.828125 C 11.34375 -29.859375 11.359375 -27.765625 11.390625 -25.546875 C 11.421875 -23.335938 11.53125 -21.203125 11.71875 -19.140625 C 11.90625 -17.078125 12.164062 -15.289062 12.5 -13.78125 C 12.84375 -12.28125 13.195312 -11.316406 13.5625 -10.890625 C 14.238281 -10.210938 15.160156 -9.410156 16.328125 -8.484375 C 17.492188 -7.566406 18.863281 -6.769531 20.4375 -6.09375 C 22.007812 -5.414062 23.703125 -5 25.515625 -4.84375 C 27.328125 -4.6875 29.21875 -4.976562 31.1875 -5.71875 C 35.0625 -7.257812 37.890625 -8.691406 39.671875 -10.015625 C 41.453125 -11.335938 42.40625 -12.582031 42.53125 -13.75 C 42.53125 -14.914062 42.40625 -16.050781 42.15625 -17.15625 C 41.914062 -18.269531 41.765625 -18.976562 41.703125 -19.28125 C 41.703125 -19.40625 41.703125 -20.421875 41.703125 -22.328125 C 41.703125 -24.234375 41.703125 -26.320312 41.703125 -28.59375 C 41.703125 -30.875 41.703125 -33.046875 41.703125 -35.109375 C 41.703125 -37.171875 41.703125 -38.445312 41.703125 -38.9375 C 41.953125 -39.851562 42.195312 -41.15625 42.4375 -42.84375 C 42.6875 -44.539062 42.9375 -45.695312 43.1875 -46.3125 C 43.238281 -46.988281 43.003906 -47.988281 42.484375 -49.3125 C 41.960938 -50.632812 41.488281 -51.328125 41.0625 -51.390625 Z M 18.921875 -22.96875 C 18.609375 -20.632812 18.664062 -19.003906 19.09375 -18.078125 C 19.28125 -17.460938 19.5 -17.066406 19.75 -16.890625 C 19.75 -18.910156 19.78125 -20.847656 19.84375 -22.703125 C 19.84375 -24.171875 19.867188 -25.703125 19.921875 -27.296875 C 19.984375 -28.898438 20.015625 -30.101562 20.015625 -30.90625 C 20.015625 -31.832031 19.984375 -33.265625 19.921875 -35.203125 C 19.867188 -37.140625 19.78125 -39.179688 19.65625 -41.328125 C 19.40625 -43.859375 19.160156 -46.503906 18.921875 -49.265625 C 18.921875 -49.140625 18.945312 -47.910156 19 -45.578125 C 19.0625 -43.242188 19.125 -40.566406 19.1875 -37.546875 C 19.25 -34.535156 19.25 -31.644531 19.1875 -28.875 C 19.125 -26.113281 19.035156 -24.144531 18.921875 -22.96875 Z M 45.125 -45.953125 L 45.125 -31.828125 C 45.125 -29.984375 45.125 -28.179688 45.125 -26.421875 C 45.125 -24.671875 45.09375 -23.101562 45.03125 -21.71875 C 44.96875 -20.34375 44.921875 -19.160156 44.890625 -18.171875 C 44.859375 -17.191406 44.84375 -16.640625 44.84375 -16.515625 C 44.65625 -16.085938 44.5 -15.394531 44.375 -14.4375 C 44.25 -13.488281 43.957031 -12.441406 43.5 -11.296875 C 43.039062 -10.160156 42.394531 -9.039062 41.5625 -7.9375 C 40.726562 -6.832031 39.609375 -5.878906 38.203125 -5.078125 C 36.660156 -4.210938 35.195312 -3.550781 33.8125 -3.09375 C 32.425781 -2.632812 31.210938 -2.21875 30.171875 -1.84375 C 29.003906 -1.414062 27.835938 -1.078125 26.671875 -0.828125 C 29.253906 -1.078125 31.648438 -1.628906 33.859375 -2.484375 C 35.828125 -3.222656 37.796875 -4.269531 39.765625 -5.625 C 41.734375 -6.976562 43.238281 -8.914062 44.28125 -11.4375 C 44.84375 -13.34375 45.179688 -16.21875 45.296875 -20.0625 C 45.421875 -23.90625 45.484375 -27.707031 45.484375 -31.46875 C 45.484375 -35.957031 45.363281 -40.785156 45.125 -45.953125 Z M 45.125 -45.953125 "/></g></g></g><g fill="#000000" fill-opacity="1"><g transform="translate(110.032565, 64.118497)"><g><path d="M 55.90625 29.890625 L -2.578125 29.890625 L -2.578125 -82.859375 L 55.90625 -82.859375 Z M 16.046875 -5.8125 C 16.171875 -6.300781 15.988281 -6.914062 15.5 -7.65625 C 15.007812 -8.394531 14.703125 -9.007812 14.578125 -9.5 C 14.578125 -9.8125 14.5625 -10.671875 14.53125 -12.078125 C 14.5 -13.492188 14.453125 -15.109375 14.390625 -16.921875 C 14.328125 -18.742188 14.296875 -20.5 14.296875 -22.1875 C 14.296875 -23.882812 14.296875 -25.253906 14.296875 -26.296875 C 14.421875 -28.078125 14.5625 -29.488281 14.71875 -30.53125 C 14.875 -31.582031 14.890625 -32.351562 14.765625 -32.84375 C 14.640625 -33.03125 14.363281 -32.722656 13.9375 -31.921875 C 13.6875 -31.492188 13.410156 -31.09375 13.109375 -30.71875 C 13.046875 -31.644531 12.953125 -32.570312 12.828125 -33.5 C 12.765625 -34.226562 12.75 -34.945312 12.78125 -35.65625 C 12.8125 -36.363281 12.921875 -36.8125 13.109375 -37 C 13.660156 -37.363281 14.101562 -37.710938 14.4375 -38.046875 C 14.78125 -38.390625 15.164062 -38.410156 15.59375 -38.109375 C 15.65625 -38.046875 16.066406 -37.382812 16.828125 -36.125 C 17.597656 -34.863281 18.519531 -33.351562 19.59375 -31.59375 C 20.675781 -29.84375 21.832031 -27.9375 23.0625 -25.875 C 24.289062 -23.820312 25.425781 -21.867188 26.46875 -20.015625 C 27.519531 -18.171875 28.429688 -16.648438 29.203125 -15.453125 C 29.972656 -14.253906 30.421875 -13.5 30.546875 -13.1875 L 33.765625 -8.859375 C 33.828125 -8.796875 33.9375 -8.472656 34.09375 -7.890625 C 34.25 -7.304688 34.398438 -6.675781 34.546875 -6 C 34.703125 -5.320312 34.890625 -4.660156 35.109375 -4.015625 C 35.328125 -3.367188 35.585938 -2.984375 35.890625 -2.859375 C 36.140625 -2.671875 36.585938 -2.53125 37.234375 -2.4375 C 37.878906 -2.351562 38.507812 -2.351562 39.125 -2.4375 C 39.738281 -2.53125 40.320312 -2.703125 40.875 -2.953125 C 41.425781 -3.203125 41.734375 -3.632812 41.796875 -4.25 C 42.046875 -5.414062 41.921875 -6.84375 41.421875 -8.53125 C 40.929688 -10.226562 40.6875 -13.101562 40.6875 -17.15625 C 40.6875 -19.0625 40.734375 -21.242188 40.828125 -23.703125 C 40.921875 -26.171875 40.96875 -28.601562 40.96875 -31 C 40.96875 -33.394531 40.984375 -35.53125 41.015625 -37.40625 C 41.046875 -39.289062 41.09375 -40.597656 41.15625 -41.328125 C 41.332031 -42.867188 41.554688 -44.066406 41.828125 -44.921875 C 42.109375 -45.785156 42.191406 -46.4375 42.078125 -46.875 C 41.890625 -47.113281 41.78125 -47.414062 41.75 -47.78125 C 41.71875 -48.15625 41.609375 -48.5625 41.421875 -49 C 41.179688 -49.425781 41.03125 -49.851562 40.96875 -50.28125 C 40.59375 -49.789062 40.253906 -49.332031 39.953125 -48.90625 C 39.273438 -47.851562 38.75 -47.207031 38.375 -46.96875 C 38.007812 -46.84375 37.566406 -46.625 37.046875 -46.3125 C 36.523438 -46.007812 36.234375 -45.613281 36.171875 -45.125 C 36.171875 -44.5 36.398438 -43.414062 36.859375 -41.875 C 37.316406 -40.34375 37.457031 -38.898438 37.28125 -37.546875 C 37.28125 -36.992188 37.265625 -35.71875 37.234375 -33.71875 C 37.203125 -31.71875 37.125 -29.578125 37 -27.296875 C 36.875 -25.023438 36.78125 -22.90625 36.71875 -20.9375 C 36.65625 -18.96875 36.625 -17.738281 36.625 -17.25 C 36.382812 -16.394531 36.203125 -15.410156 36.078125 -14.296875 C 35.953125 -13.191406 35.613281 -12.457031 35.0625 -12.09375 C 34.632812 -11.65625 34.125 -11.484375 33.53125 -11.578125 C 32.945312 -11.671875 32.441406 -12.148438 32.015625 -13.015625 C 31.523438 -13.804688 31.125 -14.492188 30.8125 -15.078125 C 30.507812 -15.671875 30.296875 -16.304688 30.171875 -16.984375 C 29.984375 -17.648438 29.84375 -18.257812 29.75 -18.8125 C 29.664062 -19.375 29.804688 -19.71875 30.171875 -19.84375 C 30.421875 -19.957031 30.570312 -20.015625 30.625 -20.015625 C 30.6875 -20.015625 30.875 -20.109375 31.1875 -20.296875 C 31.4375 -20.296875 31.585938 -20.328125 31.640625 -20.390625 C 30.785156 -21.367188 29.988281 -22.320312 29.25 -23.25 C 27.644531 -25.09375 26.597656 -26.476562 26.109375 -27.40625 C 25.804688 -27.832031 25.300781 -28.785156 24.59375 -30.265625 C 23.882812 -31.742188 23.144531 -33.3125 22.375 -34.96875 C 21.601562 -36.625 20.863281 -38.191406 20.15625 -39.671875 C 19.445312 -41.148438 19.003906 -42.039062 18.828125 -42.34375 C 18.265625 -43.019531 17.691406 -44.097656 17.109375 -45.578125 C 16.523438 -47.054688 16.050781 -47.945312 15.6875 -48.25 C 15.375 -48.5 15.21875 -48.851562 15.21875 -49.3125 C 15.21875 -49.78125 15.21875 -50.101562 15.21875 -50.28125 C 15.21875 -50.53125 15.171875 -50.484375 15.078125 -50.140625 C 14.992188 -49.804688 14.796875 -49.453125 14.484375 -49.078125 C 14.117188 -48.773438 13.378906 -48.347656 12.265625 -47.796875 C 11.160156 -47.242188 10.515625 -46.6875 10.328125 -46.125 C 10.328125 -45.757812 10.40625 -45.285156 10.5625 -44.703125 C 10.71875 -44.117188 10.929688 -43.519531 11.203125 -42.90625 C 11.484375 -42.289062 11.710938 -41.703125 11.890625 -41.140625 C 12.078125 -40.585938 12.171875 -40.253906 12.171875 -40.140625 C 12.296875 -39.523438 12.1875 -38.570312 11.84375 -37.28125 C 11.507812 -35.988281 11.34375 -34.972656 11.34375 -34.234375 C 11.34375 -33.367188 11.21875 -32.457031 10.96875 -31.5 C 10.726562 -30.550781 10.609375 -29.738281 10.609375 -29.0625 C 10.609375 -28.757812 10.5625 -27.515625 10.46875 -25.328125 C 10.375 -23.140625 10.328125 -20.722656 10.328125 -18.078125 C 10.328125 -15.429688 10.328125 -12.941406 10.328125 -10.609375 C 10.328125 -8.273438 10.421875 -6.800781 10.609375 -6.1875 C 11.347656 -3.84375 12.269531 -2.734375 13.375 -2.859375 C 13.863281 -3.109375 14.398438 -3.582031 14.984375 -4.28125 C 15.578125 -4.988281 15.929688 -5.5 16.046875 -5.8125 Z M 15.125 -2.3125 C 15.007812 -2.1875 14.976562 -1.921875 15.03125 -1.515625 C 15.09375 -1.117188 15.15625 -1.015625 15.21875 -1.203125 C 15.21875 -1.378906 15.351562 -1.609375 15.625 -1.890625 C 15.90625 -2.171875 16.140625 -2.492188 16.328125 -2.859375 C 16.703125 -3.222656 17.070312 -3.6875 17.4375 -4.25 L 16.609375 -3.40625 C 15.929688 -3.039062 15.4375 -2.675781 15.125 -2.3125 Z M 17.8125 -5.625 L 17.8125 -13.1875 C 17.8125 -15.15625 17.8125 -16.96875 17.8125 -18.625 C 17.8125 -20.289062 17.867188 -21.25 17.984375 -21.5 C 17.984375 -21.738281 17.890625 -22.257812 17.703125 -23.0625 C 17.523438 -23.863281 17.375 -24.695312 17.25 -25.5625 C 16.882812 -26.476562 16.578125 -27.492188 16.328125 -28.609375 C 16.578125 -24.546875 16.820312 -20.851562 17.0625 -17.53125 C 17.1875 -16.113281 17.265625 -14.679688 17.296875 -13.234375 C 17.328125 -11.796875 17.40625 -10.535156 17.53125 -9.453125 C 17.65625 -8.378906 17.734375 -7.503906 17.765625 -6.828125 C 17.796875 -6.148438 17.8125 -5.75 17.8125 -5.625 Z M 31.640625 -25.1875 C 30.910156 -26.664062 30.175781 -28.171875 29.4375 -29.703125 C 28.757812 -31.054688 28.066406 -32.410156 27.359375 -33.765625 C 26.648438 -35.117188 26.019531 -36.257812 25.46875 -37.1875 C 24.914062 -38.101562 24.316406 -39.191406 23.671875 -40.453125 C 23.023438 -41.710938 22.378906 -42.925781 21.734375 -44.09375 C 21.085938 -45.269531 20.484375 -46.316406 19.921875 -47.234375 C 19.367188 -48.160156 18.878906 -48.75 18.453125 -49 C 18.023438 -49.238281 17.65625 -49.46875 17.34375 -49.6875 C 17.039062 -49.90625 16.703125 -50.101562 16.328125 -50.28125 C 15.898438 -50.53125 15.53125 -50.6875 15.21875 -50.75 C 16.445312 -49.332031 17.648438 -47.789062 18.828125 -46.125 C 19.929688 -44.59375 21.128906 -42.78125 22.421875 -40.6875 C 23.710938 -38.59375 25.003906 -36.378906 26.296875 -34.046875 C 27.585938 -31.585938 28.585938 -29.769531 29.296875 -28.59375 C 30.003906 -27.425781 30.476562 -26.566406 30.71875 -26.015625 C 31.28125 -25.460938 31.585938 -25.1875 31.640625 -25.1875 Z M 43.640625 -7.015625 L 43.640625 -4.984375 C 43.765625 -5.046875 43.828125 -5.257812 43.828125 -5.625 C 43.828125 -5.875 43.828125 -6.085938 43.828125 -6.265625 C 43.828125 -6.453125 43.765625 -6.703125 43.640625 -7.015625 Z M 37.546875 0.09375 L 38.203125 0.09375 C 38.316406 0.09375 38.710938 -0.03125 39.390625 -0.28125 C 39.640625 -0.28125 39.882812 -0.351562 40.125 -0.5 C 40.375 -0.65625 40.6875 -0.859375 41.0625 -1.109375 C 41.488281 -1.347656 41.859375 -1.625 42.171875 -1.9375 Z M 19.09375 -18.546875 L 20.015625 -19.28125 L 19.84375 -20.015625 Z M 43.265625 -8.859375 L 43.265625 -9.21875 C 43.265625 -9.28125 43.296875 -9.40625 43.359375 -9.59375 C 43.421875 -9.78125 43.453125 -9.992188 43.453125 -10.234375 C 43.453125 -10.421875 43.570312 -10.664062 43.8125 -10.96875 C 44.0625 -11.28125 44.1875 -11.625 44.1875 -12 L 44.1875 -29.15625 C 44.1875 -34.195312 44.21875 -39.851562 44.28125 -46.125 C 44.039062 -45.757812 43.875 -44.976562 43.78125 -43.78125 C 43.6875 -42.582031 43.578125 -41.101562 43.453125 -39.34375 C 43.328125 -37.59375 43.265625 -35.609375 43.265625 -33.390625 C 43.265625 -31.179688 43.265625 -28.910156 43.265625 -26.578125 Z M 43.265625 -8.859375 "/></g></g></g><g fill="#000000" fill-opacity="1"><g transform="translate(164.190192, 64.118497)"><g><path d="M 56.46875 29.890625 L -2.03125 29.890625 L -2.03125 -82.859375 L 56.46875 -82.859375 Z M 38.9375 -30.078125 C 39.488281 -30.265625 40.085938 -30.816406 40.734375 -31.734375 C 41.378906 -32.660156 41.640625 -33.675781 41.515625 -34.78125 C 41.515625 -35.332031 41.3125 -36.007812 40.90625 -36.8125 C 40.507812 -37.613281 40.003906 -38.441406 39.390625 -39.296875 C 38.773438 -40.160156 38.128906 -40.976562 37.453125 -41.75 C 36.773438 -42.519531 36.191406 -43.148438 35.703125 -43.640625 C 34.597656 -44.742188 33.109375 -45.617188 31.234375 -46.265625 C 29.359375 -46.910156 27.160156 -47.082031 24.640625 -46.78125 C 23.460938 -46.53125 22.03125 -45.988281 20.34375 -45.15625 C 18.65625 -44.332031 17.007812 -42.953125 15.40625 -41.015625 C 13.8125 -39.078125 12.441406 -36.628906 11.296875 -33.671875 C 10.160156 -30.722656 9.59375 -27.035156 9.59375 -22.609375 C 9.59375 -18.179688 10.269531 -14.503906 11.625 -11.578125 C 12.976562 -8.660156 14.5625 -6.367188 16.375 -4.703125 C 18.1875 -3.046875 20.109375 -1.863281 22.140625 -1.15625 C 24.171875 -0.445312 25.832031 -0.09375 27.125 -0.09375 C 28.414062 -0.09375 29.785156 -0.414062 31.234375 -1.0625 C 32.679688 -1.707031 34.050781 -2.488281 35.34375 -3.40625 C 36.632812 -4.332031 37.722656 -5.195312 38.609375 -6 C 39.503906 -6.800781 40.070312 -7.351562 40.3125 -7.65625 C 40.5 -8.03125 40.625 -8.675781 40.6875 -9.59375 C 40.75 -10.519531 40.78125 -11.457031 40.78125 -12.40625 C 40.78125 -13.363281 40.75 -14.300781 40.6875 -15.21875 C 40.625 -16.144531 40.59375 -16.820312 40.59375 -17.25 C 40.59375 -18.175781 40.671875 -18.945312 40.828125 -19.5625 C 40.984375 -20.175781 41.09375 -20.851562 41.15625 -21.59375 C 41.332031 -22.269531 41.144531 -22.898438 40.59375 -23.484375 C 40.039062 -24.066406 39.582031 -24.601562 39.21875 -25.09375 C 38.96875 -25.28125 38.8125 -25.445312 38.75 -25.59375 C 38.6875 -25.75 38.59375 -25.953125 38.46875 -26.203125 C 38.351562 -26.390625 38.296875 -26.515625 38.296875 -26.578125 C 37.859375 -25.835938 37.457031 -25.25 37.09375 -24.8125 C 36.65625 -24.445312 36.097656 -24.09375 35.421875 -23.75 C 34.753906 -23.414062 33.988281 -23.25 33.125 -23.25 C 31.34375 -23.25 29.941406 -23.28125 28.921875 -23.34375 C 27.910156 -23.40625 27.1875 -22.820312 26.75 -21.59375 C 26.320312 -20.425781 26.492188 -19.378906 27.265625 -18.453125 C 28.035156 -17.523438 28.695312 -17.003906 29.25 -16.890625 C 29.800781 -16.578125 30.367188 -16.523438 30.953125 -16.734375 C 31.535156 -16.953125 32.070312 -17.1875 32.5625 -17.4375 C 33.0625 -17.625 33.328125 -17.835938 33.359375 -18.078125 C 33.390625 -18.328125 33.617188 -18.207031 34.046875 -17.71875 C 34.535156 -17.28125 35.070312 -16.660156 35.65625 -15.859375 C 36.238281 -15.066406 36.316406 -13.78125 35.890625 -12 C 35.335938 -9.96875 34.414062 -8.363281 33.125 -7.1875 C 31.832031 -6.019531 29.832031 -5.5625 27.125 -5.8125 C 25.832031 -5.875 24.492188 -6.347656 23.109375 -7.234375 C 21.722656 -8.128906 20.414062 -9.222656 19.1875 -10.515625 C 17.957031 -11.804688 16.957031 -13.25 16.1875 -14.84375 C 15.425781 -16.445312 14.984375 -18.140625 14.859375 -19.921875 C 14.734375 -21.710938 14.734375 -23.546875 14.859375 -25.421875 C 14.984375 -27.296875 15.226562 -29.09375 15.59375 -30.8125 C 15.957031 -32.539062 16.445312 -34.066406 17.0625 -35.390625 C 17.675781 -36.710938 18.507812 -37.707031 19.5625 -38.375 C 21.59375 -39.726562 23.453125 -40.4375 25.140625 -40.5 C 26.828125 -40.5625 28.289062 -40.410156 29.53125 -40.046875 C 30.882812 -39.554688 31.972656 -38.691406 32.796875 -37.453125 C 33.628906 -36.222656 34.320312 -35.332031 34.875 -34.78125 C 35.425781 -34.101562 35.59375 -33.285156 35.375 -32.328125 C 35.164062 -31.378906 35.644531 -30.566406 36.8125 -29.890625 C 37.363281 -29.523438 37.859375 -29.460938 38.296875 -29.703125 Z M 27.3125 -49.546875 C 27.3125 -49.296875 28.09375 -49.0625 29.65625 -48.84375 C 31.226562 -48.632812 32.597656 -48.160156 33.765625 -47.421875 C 35.054688 -46.679688 36.378906 -45.742188 37.734375 -44.609375 C 39.085938 -43.472656 40.101562 -42.441406 40.78125 -41.515625 C 41.394531 -40.660156 41.804688 -39.753906 42.015625 -38.796875 C 42.234375 -37.847656 42.46875 -37.21875 42.71875 -36.90625 C 42.71875 -36.65625 42.734375 -36.484375 42.765625 -36.390625 C 42.796875 -36.304688 42.8125 -36.234375 42.8125 -36.171875 L 42.8125 -35.796875 C 42.625 -37.210938 42.347656 -38.535156 41.984375 -39.765625 C 41.429688 -40.929688 40.738281 -42.144531 39.90625 -43.40625 C 39.070312 -44.664062 37.914062 -45.789062 36.4375 -46.78125 C 34.84375 -47.757812 33.472656 -48.445312 32.328125 -48.84375 C 31.191406 -49.25 30.257812 -49.484375 29.53125 -49.546875 C 28.726562 -49.609375 27.988281 -49.609375 27.3125 -49.546875 Z M 17.25 -22.328125 C 17.3125 -19.492188 17.726562 -17.21875 18.5 -15.5 C 19.269531 -13.78125 20.082031 -12.378906 20.9375 -11.296875 C 21.800781 -10.222656 22.585938 -9.5 23.296875 -9.125 C 24.003906 -8.757812 24.453125 -8.578125 24.640625 -8.578125 C 24.878906 -8.578125 25.367188 -8.945312 26.109375 -9.6875 C 26.484375 -10.113281 26.882812 -10.546875 27.3125 -10.984375 C 26.882812 -11.046875 26.453125 -11.164062 26.015625 -11.34375 C 25.585938 -11.40625 25.125 -11.53125 24.625 -11.71875 C 24.132812 -11.90625 23.675781 -12.179688 23.25 -12.546875 C 22.269531 -13.222656 21.316406 -14.253906 20.390625 -15.640625 C 19.460938 -17.023438 18.910156 -19.6875 18.734375 -23.625 C 18.609375 -25.53125 18.710938 -27.296875 19.046875 -28.921875 C 19.390625 -30.554688 19.742188 -31.957031 20.109375 -33.125 C 20.546875 -34.476562 21.101562 -35.738281 21.78125 -36.90625 C 20.851562 -36.039062 20.050781 -34.929688 19.375 -33.578125 C 18.820312 -32.410156 18.269531 -30.9375 17.71875 -29.15625 C 17.164062 -27.375 17.007812 -25.097656 17.25 -22.328125 Z M 32.015625 -27.5 L 37.546875 -27.5 C 36.804688 -27.5 36.070312 -27.53125 35.34375 -27.59375 C 34.664062 -27.59375 33.988281 -27.632812 33.3125 -27.71875 C 32.632812 -27.8125 32.203125 -27.738281 32.015625 -27.5 Z M 39.390625 -26.84375 L 40.78125 -25.28125 C 41.03125 -24.851562 41.320312 -24.375 41.65625 -23.84375 C 42 -23.320312 42.289062 -22.910156 42.53125 -22.609375 C 42.71875 -22.296875 42.859375 -21.675781 42.953125 -20.75 C 43.046875 -19.832031 43.09375 -18.816406 43.09375 -17.703125 C 43.09375 -16.597656 43.046875 -15.554688 42.953125 -14.578125 C 42.859375 -13.597656 42.8125 -12.769531 42.8125 -12.09375 C 42.8125 -10.914062 42.765625 -9.863281 42.671875 -8.9375 C 42.578125 -8.019531 42.378906 -7.347656 42.078125 -6.921875 C 41.828125 -6.671875 41.410156 -6.253906 40.828125 -5.671875 C 40.242188 -5.085938 39.613281 -4.457031 38.9375 -3.78125 L 36.4375 -1.203125 C 37.488281 -1.941406 38.472656 -2.769531 39.390625 -3.6875 C 40.316406 -4.425781 41.164062 -5.269531 41.9375 -6.21875 C 42.707031 -7.175781 43.242188 -8.238281 43.546875 -9.40625 C 43.796875 -10.519531 43.921875 -11.84375 43.921875 -13.375 C 43.921875 -14.914062 43.890625 -16.378906 43.828125 -17.765625 C 43.765625 -19.148438 43.625 -20.363281 43.40625 -21.40625 C 43.195312 -22.445312 43 -23.0625 42.8125 -23.25 C 42.75 -23.5 42.546875 -23.867188 42.203125 -24.359375 C 41.867188 -24.847656 41.515625 -25.320312 41.140625 -25.78125 C 40.773438 -26.25 40.421875 -26.632812 40.078125 -26.9375 C 39.742188 -27.25 39.515625 -27.21875 39.390625 -26.84375 Z M 39.390625 -26.84375 "/></g></g></g><g fill="#000000" fill-opacity="1"><g transform="translate(219.731752, 64.118497)"><g><path d="M 56.375 29.890625 L -2.125 29.890625 L -2.125 -82.859375 L 56.375 -82.859375 Z M 33.21875 -41.421875 C 33.957031 -41.421875 34.925781 -41.328125 36.125 -41.140625 C 37.320312 -40.960938 38.382812 -40.96875 39.3125 -41.15625 C 40.351562 -41.21875 41.070312 -41.570312 41.46875 -42.21875 C 41.875 -42.863281 42.132812 -43.492188 42.25 -44.109375 C 42.375 -44.785156 42.175781 -45.644531 41.65625 -46.6875 C 41.132812 -47.726562 40.566406 -48.375 39.953125 -48.625 C 39.523438 -48.875 38.878906 -48.921875 38.015625 -48.765625 C 37.148438 -48.609375 36.472656 -48.378906 35.984375 -48.078125 C 35.617188 -47.890625 35.066406 -47.734375 34.328125 -47.609375 C 33.585938 -47.484375 32.816406 -47.359375 32.015625 -47.234375 C 31.210938 -47.117188 30.394531 -47.03125 29.5625 -46.96875 C 28.738281 -46.90625 28.109375 -46.875 27.671875 -46.875 C 27.242188 -46.875 26.367188 -46.90625 25.046875 -46.96875 C 23.722656 -47.03125 22.289062 -47.085938 20.75 -47.140625 C 19.21875 -47.203125 17.804688 -47.203125 16.515625 -47.140625 C 15.222656 -47.085938 14.363281 -46.96875 13.9375 -46.78125 C 13.5 -46.46875 13.140625 -45.789062 12.859375 -44.75 C 12.585938 -43.707031 12.375 -42.523438 12.21875 -41.203125 C 12.070312 -39.878906 11.96875 -38.613281 11.90625 -37.40625 C 11.84375 -36.207031 11.8125 -35.269531 11.8125 -34.59375 C 11.8125 -33.914062 11.867188 -33.039062 11.984375 -31.96875 C 12.109375 -30.894531 12.21875 -29.863281 12.3125 -28.875 C 12.40625 -27.894531 12.484375 -26.972656 12.546875 -26.109375 C 12.609375 -25.242188 12.578125 -24.660156 12.453125 -24.359375 C 12.328125 -23.867188 12.140625 -22.992188 11.890625 -21.734375 C 11.648438 -20.472656 11.53125 -19.285156 11.53125 -18.171875 C 11.53125 -17.679688 11.578125 -16.726562 11.671875 -15.3125 C 11.765625 -13.894531 11.882812 -12.429688 12.03125 -10.921875 C 12.1875 -9.421875 12.328125 -8.039062 12.453125 -6.78125 C 12.578125 -5.519531 12.640625 -4.859375 12.640625 -4.796875 C 12.640625 -4.492188 12.851562 -3.941406 13.28125 -3.140625 C 13.71875 -2.335938 14.273438 -1.84375 14.953125 -1.65625 C 15.253906 -1.65625 16.28125 -1.640625 18.03125 -1.609375 C 19.789062 -1.578125 21.726562 -1.5625 23.84375 -1.5625 C 25.96875 -1.5625 27.9375 -1.5625 29.75 -1.5625 C 31.570312 -1.5625 32.601562 -1.5625 32.84375 -1.5625 C 33.15625 -1.5625 33.691406 -1.46875 34.453125 -1.28125 C 35.222656 -1.101562 36.023438 -0.9375 36.859375 -0.78125 C 37.691406 -0.625 38.414062 -0.5 39.03125 -0.40625 C 39.644531 -0.320312 40.132812 -0.28125 40.5 -0.28125 C 41.050781 -0.28125 41.800781 -0.601562 42.75 -1.25 C 43.707031 -1.894531 44.25 -2.585938 44.375 -3.328125 C 44.375 -4.054688 44.265625 -5.019531 44.046875 -6.21875 C 43.835938 -7.425781 43.300781 -8.117188 42.4375 -8.296875 C 41.695312 -8.546875 40.4375 -8.332031 38.65625 -7.65625 C 36.875 -6.976562 35.460938 -6.578125 34.421875 -6.453125 C 33.921875 -6.273438 33.007812 -6.242188 31.6875 -6.359375 C 30.363281 -6.484375 28.960938 -6.640625 27.484375 -6.828125 C 26.015625 -7.015625 24.664062 -7.164062 23.4375 -7.28125 C 22.207031 -7.40625 21.40625 -7.46875 21.03125 -7.46875 C 20.539062 -7.46875 19.785156 -7.328125 18.765625 -7.046875 C 17.753906 -6.773438 17.066406 -6.796875 16.703125 -7.109375 C 16.265625 -7.347656 16.171875 -7.851562 16.421875 -8.625 C 16.671875 -9.394531 16.796875 -9.90625 16.796875 -10.15625 C 16.796875 -10.332031 16.78125 -10.710938 16.75 -11.296875 C 16.71875 -11.878906 16.578125 -12.484375 16.328125 -13.109375 C 16.203125 -13.222656 16.125 -13.785156 16.09375 -14.796875 C 16.0625 -15.816406 16.09375 -16.832031 16.1875 -17.84375 C 16.28125 -18.863281 16.390625 -19.800781 16.515625 -20.65625 C 16.640625 -21.519531 16.820312 -21.984375 17.0625 -22.046875 C 17.375 -22.359375 17.867188 -22.421875 18.546875 -22.234375 C 19.222656 -22.046875 19.804688 -22.078125 20.296875 -22.328125 C 20.484375 -22.328125 21.035156 -22.359375 21.953125 -22.421875 C 22.878906 -22.484375 23.863281 -22.515625 24.90625 -22.515625 C 25.957031 -22.515625 26.925781 -22.515625 27.8125 -22.515625 C 28.707031 -22.515625 29.335938 -22.453125 29.703125 -22.328125 C 30.203125 -22.078125 30.632812 -21.875 31 -21.71875 C 31.375 -21.570312 32.144531 -21.617188 33.3125 -21.859375 C 34.601562 -21.984375 35.367188 -22.414062 35.609375 -23.15625 C 35.859375 -23.894531 36.015625 -24.847656 36.078125 -26.015625 C 36.265625 -27.242188 35.957031 -27.992188 35.15625 -28.265625 C 34.351562 -28.546875 33.675781 -28.84375 33.125 -29.15625 C 32.445312 -29.28125 31.582031 -29.140625 30.53125 -28.734375 C 29.488281 -28.335938 28.660156 -28.078125 28.046875 -27.953125 C 27.742188 -27.953125 27.238281 -27.953125 26.53125 -27.953125 C 25.820312 -27.953125 25.113281 -28 24.40625 -28.09375 C 23.695312 -28.1875 23.019531 -28.28125 22.375 -28.375 C 21.726562 -28.46875 21.25 -28.515625 20.9375 -28.515625 C 20.570312 -28.328125 20.128906 -28.234375 19.609375 -28.234375 C 19.085938 -28.234375 18.519531 -28.203125 17.90625 -28.140625 C 17.40625 -28.015625 16.816406 -27.953125 16.140625 -27.953125 L 16.140625 -33.953125 C 16.140625 -35.492188 16.140625 -36.925781 16.140625 -38.25 C 16.140625 -39.570312 16.203125 -40.414062 16.328125 -40.78125 C 19.160156 -40.84375 21.773438 -40.96875 24.171875 -41.15625 C 26.203125 -41.21875 28.109375 -41.273438 29.890625 -41.328125 C 31.671875 -41.390625 32.78125 -41.421875 33.21875 -41.421875 Z M 27.21875 -39.03125 L 18.453125 -39.03125 C 18.328125 -38.101562 18.265625 -37.269531 18.265625 -36.53125 L 18.265625 -33.40625 C 18.265625 -32.539062 18.234375 -31.984375 18.171875 -31.734375 C 17.992188 -31.429688 17.875 -31.15625 17.8125 -30.90625 C 19.46875 -30.90625 20.910156 -30.9375 22.140625 -31 C 23.304688 -31.1875 24.335938 -31.28125 25.234375 -31.28125 C 26.128906 -31.28125 26.695312 -31.3125 26.9375 -31.375 C 27 -31.375 26.769531 -31.375 26.25 -31.375 C 25.726562 -31.375 25.113281 -31.429688 24.40625 -31.546875 C 23.695312 -31.671875 22.988281 -31.796875 22.28125 -31.921875 C 21.570312 -32.046875 21.15625 -32.414062 21.03125 -33.03125 C 20.726562 -34.007812 20.546875 -34.976562 20.484375 -35.9375 C 20.421875 -36.894531 20.570312 -37.460938 20.9375 -37.640625 C 21.125 -37.828125 21.539062 -37.953125 22.1875 -38.015625 C 22.832031 -38.078125 23.523438 -38.226562 24.265625 -38.46875 C 25.128906 -38.65625 26.113281 -38.84375 27.21875 -39.03125 Z M 32.109375 -31.46875 L 34.6875 -29.703125 C 34.195312 -30.316406 33.707031 -30.75 33.21875 -31 C 32.78125 -31.25 32.410156 -31.40625 32.109375 -31.46875 Z M 20.578125 -19.1875 C 20.640625 -19.1875 21.023438 -19.21875 21.734375 -19.28125 C 22.441406 -19.34375 23.207031 -19.4375 24.03125 -19.5625 C 24.863281 -19.6875 25.570312 -19.765625 26.15625 -19.796875 C 26.738281 -19.828125 27 -19.84375 26.9375 -19.84375 C 26.632812 -20.082031 26.097656 -20.15625 25.328125 -20.0625 C 24.554688 -19.96875 23.769531 -19.859375 22.96875 -19.734375 C 22.175781 -19.617188 21.546875 -19.484375 21.078125 -19.328125 C 20.617188 -19.171875 20.453125 -19.125 20.578125 -19.1875 Z M 18.265625 -20.296875 C 18.265625 -19.992188 18.296875 -19.363281 18.359375 -18.40625 C 18.421875 -17.457031 18.515625 -16.394531 18.640625 -15.21875 C 18.765625 -13.863281 18.859375 -12.453125 18.921875 -10.984375 L 20.9375 -11.34375 C 20.695312 -10.976562 20.515625 -10.796875 20.390625 -10.796875 C 20.140625 -10.796875 20 -10.945312 19.96875 -11.25 C 19.9375 -11.5625 19.894531 -12.238281 19.84375 -13.28125 C 19.65625 -14.394531 19.515625 -15.363281 19.421875 -16.1875 C 19.328125 -17.019531 19.160156 -17.773438 18.921875 -18.453125 C 18.734375 -19.066406 18.515625 -19.679688 18.265625 -20.296875 Z M 18.265625 -20.296875 "/></g></g></g><g fill="#000000" fill-opacity="1"><g transform="translate(274.996526, 64.118497)"><g><path d="M 56.375 29.890625 L -1.9375 29.890625 L -1.9375 -82.859375 L 56.375 -82.859375 Z M 27.125 -43 C 28.84375 -42.8125 30.363281 -42.148438 31.6875 -41.015625 C 33.007812 -39.878906 34.128906 -38.492188 35.046875 -36.859375 C 35.972656 -35.234375 36.679688 -33.4375 37.171875 -31.46875 C 37.671875 -29.5 37.921875 -27.5625 37.921875 -25.65625 C 37.921875 -23.75 37.660156 -21.734375 37.140625 -19.609375 C 36.617188 -17.484375 35.863281 -15.570312 34.875 -13.875 C 33.894531 -12.1875 32.757812 -10.789062 31.46875 -9.6875 C 30.175781 -8.582031 28.820312 -8.03125 27.40625 -8.03125 C 25.925781 -8.03125 24.304688 -8.351562 22.546875 -9 C 20.796875 -9.644531 19.164062 -10.71875 17.65625 -12.21875 C 16.15625 -13.726562 14.910156 -15.695312 13.921875 -18.125 C 12.941406 -20.5625 12.578125 -23.5625 12.828125 -27.125 C 12.953125 -30.695312 13.703125 -33.539062 15.078125 -35.65625 C 16.460938 -37.78125 17.96875 -39.410156 19.59375 -40.546875 C 21.226562 -41.679688 22.800781 -42.40625 24.3125 -42.71875 C 25.820312 -43.03125 26.757812 -43.125 27.125 -43 Z M 33.765625 -45.859375 C 32.296875 -47.273438 31.035156 -48.273438 29.984375 -48.859375 C 28.941406 -49.441406 28.664062 -49.238281 29.15625 -48.25 C 29.15625 -48.070312 28.492188 -47.984375 27.171875 -47.984375 C 25.847656 -47.984375 24.21875 -47.796875 22.28125 -47.421875 C 20.34375 -47.054688 18.390625 -46.394531 16.421875 -45.4375 C 14.453125 -44.488281 12.945312 -42.96875 11.90625 -40.875 C 10.675781 -38.78125 9.707031 -36.179688 9 -33.078125 C 8.289062 -29.972656 7.984375 -26.789062 8.078125 -23.53125 C 8.171875 -20.269531 8.738281 -17.160156 9.78125 -14.203125 C 10.820312 -11.253906 12.515625 -8.796875 14.859375 -6.828125 C 17.316406 -4.921875 19.742188 -3.628906 22.140625 -2.953125 C 24.535156 -2.273438 26.75 -2.101562 28.78125 -2.4375 C 30.8125 -2.78125 32.59375 -3.566406 34.125 -4.796875 C 35.664062 -6.023438 36.867188 -7.410156 37.734375 -8.953125 C 38.472656 -10.546875 39.179688 -12.375 39.859375 -14.4375 C 40.535156 -16.5 41.054688 -18.585938 41.421875 -20.703125 C 41.796875 -22.828125 41.953125 -24.890625 41.890625 -26.890625 C 41.828125 -28.890625 41.613281 -30.691406 41.25 -32.296875 C 39.394531 -38.316406 36.898438 -42.835938 33.765625 -45.859375 Z M 48.4375 -18.359375 C 48.195312 -18.109375 48.078125 -17.925781 48.078125 -17.8125 C 48.078125 -17.5 48.101562 -17.25 48.15625 -17.0625 C 48.21875 -16.882812 48.40625 -16.734375 48.71875 -16.609375 Z M 36.171875 -48.53125 C 34.753906 -49.332031 33.503906 -50.007812 32.421875 -50.5625 C 31.347656 -51.113281 30.382812 -51.515625 29.53125 -51.765625 C 28.539062 -52.066406 27.613281 -52.21875 26.75 -52.21875 L 30.171875 -51.109375 C 30.359375 -51.046875 30.988281 -50.691406 32.0625 -50.046875 C 33.132812 -49.398438 34.300781 -48.613281 35.5625 -47.6875 C 36.820312 -46.769531 38.019531 -45.726562 39.15625 -44.5625 C 40.300781 -43.394531 41.117188 -42.164062 41.609375 -40.875 C 42.097656 -39.582031 42.539062 -38.085938 42.9375 -36.390625 C 43.34375 -34.703125 43.679688 -32.9375 43.953125 -31.09375 C 44.234375 -29.25 44.4375 -27.445312 44.5625 -25.6875 C 44.6875 -23.9375 44.625 -22.382812 44.375 -21.03125 C 43.945312 -18.207031 43.347656 -15.65625 42.578125 -13.375 C 41.804688 -11.101562 40.191406 -8.707031 37.734375 -6.1875 C 36.441406 -4.957031 35.132812 -3.925781 33.8125 -3.09375 C 32.488281 -2.257812 31.273438 -1.597656 30.171875 -1.109375 C 28.816406 -0.492188 27.554688 -0.0273438 26.390625 0.28125 C 28.484375 -0.269531 30.484375 -0.976562 32.390625 -1.84375 C 33.984375 -2.582031 35.625 -3.582031 37.3125 -4.84375 C 39.007812 -6.101562 40.378906 -7.65625 41.421875 -9.5 C 42.472656 -11.34375 43.257812 -13.382812 43.78125 -15.625 C 44.300781 -17.875 44.679688 -20.046875 44.921875 -22.140625 C 45.171875 -24.234375 45.28125 -26.109375 45.25 -27.765625 C 45.21875 -29.429688 45.175781 -30.695312 45.125 -31.5625 C 44.9375 -32.175781 44.625 -33.234375 44.1875 -34.734375 C 43.757812 -36.242188 43.175781 -37.875 42.4375 -39.625 C 41.695312 -41.375 40.789062 -43.0625 39.71875 -44.6875 C 38.644531 -46.320312 37.460938 -47.601562 36.171875 -48.53125 Z M 22.609375 -39.578125 C 21.679688 -39.085938 20.785156 -38.472656 19.921875 -37.734375 C 19.128906 -37.054688 18.363281 -36.191406 17.625 -35.140625 C 16.882812 -34.097656 16.300781 -32.90625 15.875 -31.5625 C 15.007812 -28.726562 14.789062 -25.726562 15.21875 -22.5625 C 15.65625 -19.394531 16.300781 -16.890625 17.15625 -15.046875 C 17.65625 -14.117188 18.269531 -13.316406 19 -12.640625 C 19.738281 -11.960938 20.492188 -11.4375 21.265625 -11.0625 C 22.035156 -10.695312 22.726562 -10.421875 23.34375 -10.234375 C 23.957031 -10.054688 24.359375 -10.03125 24.546875 -10.15625 C 24.722656 -10.457031 24.488281 -10.898438 23.84375 -11.484375 C 23.195312 -12.066406 22.507812 -12.695312 21.78125 -13.375 C 21.40625 -13.6875 20.957031 -14.054688 20.4375 -14.484375 C 19.914062 -14.910156 19.390625 -15.523438 18.859375 -16.328125 C 18.335938 -17.128906 17.878906 -18.222656 17.484375 -19.609375 C 17.085938 -20.992188 16.859375 -22.851562 16.796875 -25.1875 C 16.484375 -27.40625 16.617188 -29.4375 17.203125 -31.28125 C 17.785156 -33.125 18.507812 -34.628906 19.375 -35.796875 C 20.363281 -37.210938 21.441406 -38.472656 22.609375 -39.578125 Z M 22.609375 -39.578125 "/></g></g></g><g fill="#000000" fill-opacity="1"><g transform="translate(330.2613, 64.118497)"><g><path d="M 55.90625 29.890625 L -2.578125 29.890625 L -2.578125 -82.859375 L 55.90625 -82.859375 Z M 16.046875 -5.8125 C 16.171875 -6.300781 15.988281 -6.914062 15.5 -7.65625 C 15.007812 -8.394531 14.703125 -9.007812 14.578125 -9.5 C 14.578125 -9.8125 14.5625 -10.671875 14.53125 -12.078125 C 14.5 -13.492188 14.453125 -15.109375 14.390625 -16.921875 C 14.328125 -18.742188 14.296875 -20.5 14.296875 -22.1875 C 14.296875 -23.882812 14.296875 -25.253906 14.296875 -26.296875 C 14.421875 -28.078125 14.5625 -29.488281 14.71875 -30.53125 C 14.875 -31.582031 14.890625 -32.351562 14.765625 -32.84375 C 14.640625 -33.03125 14.363281 -32.722656 13.9375 -31.921875 C 13.6875 -31.492188 13.410156 -31.09375 13.109375 -30.71875 C 13.046875 -31.644531 12.953125 -32.570312 12.828125 -33.5 C 12.765625 -34.226562 12.75 -34.945312 12.78125 -35.65625 C 12.8125 -36.363281 12.921875 -36.8125 13.109375 -37 C 13.660156 -37.363281 14.101562 -37.710938 14.4375 -38.046875 C 14.78125 -38.390625 15.164062 -38.410156 15.59375 -38.109375 C 15.65625 -38.046875 16.066406 -37.382812 16.828125 -36.125 C 17.597656 -34.863281 18.519531 -33.351562 19.59375 -31.59375 C 20.675781 -29.84375 21.832031 -27.9375 23.0625 -25.875 C 24.289062 -23.820312 25.425781 -21.867188 26.46875 -20.015625 C 27.519531 -18.171875 28.429688 -16.648438 29.203125 -15.453125 C 29.972656 -14.253906 30.421875 -13.5 30.546875 -13.1875 L 33.765625 -8.859375 C 33.828125 -8.796875 33.9375 -8.472656 34.09375 -7.890625 C 34.25 -7.304688 34.398438 -6.675781 34.546875 -6 C 34.703125 -5.320312 34.890625 -4.660156 35.109375 -4.015625 C 35.328125 -3.367188 35.585938 -2.984375 35.890625 -2.859375 C 36.140625 -2.671875 36.585938 -2.53125 37.234375 -2.4375 C 37.878906 -2.351562 38.507812 -2.351562 39.125 -2.4375 C 39.738281 -2.53125 40.320312 -2.703125 40.875 -2.953125 C 41.425781 -3.203125 41.734375 -3.632812 41.796875 -4.25 C 42.046875 -5.414062 41.921875 -6.84375 41.421875 -8.53125 C 40.929688 -10.226562 40.6875 -13.101562 40.6875 -17.15625 C 40.6875 -19.0625 40.734375 -21.242188 40.828125 -23.703125 C 40.921875 -26.171875 40.96875 -28.601562 40.96875 -31 C 40.96875 -33.394531 40.984375 -35.53125 41.015625 -37.40625 C 41.046875 -39.289062 41.09375 -40.597656 41.15625 -41.328125 C 41.332031 -42.867188 41.554688 -44.066406 41.828125 -44.921875 C 42.109375 -45.785156 42.191406 -46.4375 42.078125 -46.875 C 41.890625 -47.113281 41.78125 -47.414062 41.75 -47.78125 C 41.71875 -48.15625 41.609375 -48.5625 41.421875 -49 C 41.179688 -49.425781 41.03125 -49.851562 40.96875 -50.28125 C 40.59375 -49.789062 40.253906 -49.332031 39.953125 -48.90625 C 39.273438 -47.851562 38.75 -47.207031 38.375 -46.96875 C 38.007812 -46.84375 37.566406 -46.625 37.046875 -46.3125 C 36.523438 -46.007812 36.234375 -45.613281 36.171875 -45.125 C 36.171875 -44.5 36.398438 -43.414062 36.859375 -41.875 C 37.316406 -40.34375 37.457031 -38.898438 37.28125 -37.546875 C 37.28125 -36.992188 37.265625 -35.71875 37.234375 -33.71875 C 37.203125 -31.71875 37.125 -29.578125 37 -27.296875 C 36.875 -25.023438 36.78125 -22.90625 36.71875 -20.9375 C 36.65625 -18.96875 36.625 -17.738281 36.625 -17.25 C 36.382812 -16.394531 36.203125 -15.410156 36.078125 -14.296875 C 35.953125 -13.191406 35.613281 -12.457031 35.0625 -12.09375 C 34.632812 -11.65625 34.125 -11.484375 33.53125 -11.578125 C 32.945312 -11.671875 32.441406 -12.148438 32.015625 -13.015625 C 31.523438 -13.804688 31.125 -14.492188 30.8125 -15.078125 C 30.507812 -15.671875 30.296875 -16.304688 30.171875 -16.984375 C 29.984375 -17.648438 29.84375 -18.257812 29.75 -18.8125 C 29.664062 -19.375 29.804688 -19.71875 30.171875 -19.84375 C 30.421875 -19.957031 30.570312 -20.015625 30.625 -20.015625 C 30.6875 -20.015625 30.875 -20.109375 31.1875 -20.296875 C 31.4375 -20.296875 31.585938 -20.328125 31.640625 -20.390625 C 30.785156 -21.367188 29.988281 -22.320312 29.25 -23.25 C 27.644531 -25.09375 26.597656 -26.476562 26.109375 -27.40625 C 25.804688 -27.832031 25.300781 -28.785156 24.59375 -30.265625 C 23.882812 -31.742188 23.144531 -33.3125 22.375 -34.96875 C 21.601562 -36.625 20.863281 -38.191406 20.15625 -39.671875 C 19.445312 -41.148438 19.003906 -42.039062 18.828125 -42.34375 C 18.265625 -43.019531 17.691406 -44.097656 17.109375 -45.578125 C 16.523438 -47.054688 16.050781 -47.945312 15.6875 -48.25 C 15.375 -48.5 15.21875 -48.851562 15.21875 -49.3125 C 15.21875 -49.78125 15.21875 -50.101562 15.21875 -50.28125 C 15.21875 -50.53125 15.171875 -50.484375 15.078125 -50.140625 C 14.992188 -49.804688 14.796875 -49.453125 14.484375 -49.078125 C 14.117188 -48.773438 13.378906 -48.347656 12.265625 -47.796875 C 11.160156 -47.242188 10.515625 -46.6875 10.328125 -46.125 C 10.328125 -45.757812 10.40625 -45.285156 10.5625 -44.703125 C 10.71875 -44.117188 10.929688 -43.519531 11.203125 -42.90625 C 11.484375 -42.289062 11.710938 -41.703125 11.890625 -41.140625 C 12.078125 -40.585938 12.171875 -40.253906 12.171875 -40.140625 C 12.296875 -39.523438 12.1875 -38.570312 11.84375 -37.28125 C 11.507812 -35.988281 11.34375 -34.972656 11.34375 -34.234375 C 11.34375 -33.367188 11.21875 -32.457031 10.96875 -31.5 C 10.726562 -30.550781 10.609375 -29.738281 10.609375 -29.0625 C 10.609375 -28.757812 10.5625 -27.515625 10.46875 -25.328125 C 10.375 -23.140625 10.328125 -20.722656 10.328125 -18.078125 C 10.328125 -15.429688 10.328125 -12.941406 10.328125 -10.609375 C 10.328125 -8.273438 10.421875 -6.800781 10.609375 -6.1875 C 11.347656 -3.84375 12.269531 -2.734375 13.375 -2.859375 C 13.863281 -3.109375 14.398438 -3.582031 14.984375 -4.28125 C 15.578125 -4.988281 15.929688 -5.5 16.046875 -5.8125 Z M 15.125 -2.3125 C 15.007812 -2.1875 14.976562 -1.921875 15.03125 -1.515625 C 15.09375 -1.117188 15.15625 -1.015625 15.21875 -1.203125 C 15.21875 -1.378906 15.351562 -1.609375 15.625 -1.890625 C 15.90625 -2.171875 16.140625 -2.492188 16.328125 -2.859375 C 16.703125 -3.222656 17.070312 -3.6875 17.4375 -4.25 L 16.609375 -3.40625 C 15.929688 -3.039062 15.4375 -2.675781 15.125 -2.3125 Z M 17.8125 -5.625 L 17.8125 -13.1875 C 17.8125 -15.15625 17.8125 -16.96875 17.8125 -18.625 C 17.8125 -20.289062 17.867188 -21.25 17.984375 -21.5 C 17.984375 -21.738281 17.890625 -22.257812 17.703125 -23.0625 C 17.523438 -23.863281 17.375 -24.695312 17.25 -25.5625 C 16.882812 -26.476562 16.578125 -27.492188 16.328125 -28.609375 C 16.578125 -24.546875 16.820312 -20.851562 17.0625 -17.53125 C 17.1875 -16.113281 17.265625 -14.679688 17.296875 -13.234375 C 17.328125 -11.796875 17.40625 -10.535156 17.53125 -9.453125 C 17.65625 -8.378906 17.734375 -7.503906 17.765625 -6.828125 C 17.796875 -6.148438 17.8125 -5.75 17.8125 -5.625 Z M 31.640625 -25.1875 C 30.910156 -26.664062 30.175781 -28.171875 29.4375 -29.703125 C 28.757812 -31.054688 28.066406 -32.410156 27.359375 -33.765625 C 26.648438 -35.117188 26.019531 -36.257812 25.46875 -37.1875 C 24.914062 -38.101562 24.316406 -39.191406 23.671875 -40.453125 C 23.023438 -41.710938 22.378906 -42.925781 21.734375 -44.09375 C 21.085938 -45.269531 20.484375 -46.316406 19.921875 -47.234375 C 19.367188 -48.160156 18.878906 -48.75 18.453125 -49 C 18.023438 -49.238281 17.65625 -49.46875 17.34375 -49.6875 C 17.039062 -49.90625 16.703125 -50.101562 16.328125 -50.28125 C 15.898438 -50.53125 15.53125 -50.6875 15.21875 -50.75 C 16.445312 -49.332031 17.648438 -47.789062 18.828125 -46.125 C 19.929688 -44.59375 21.128906 -42.78125 22.421875 -40.6875 C 23.710938 -38.59375 25.003906 -36.378906 26.296875 -34.046875 C 27.585938 -31.585938 28.585938 -29.769531 29.296875 -28.59375 C 30.003906 -27.425781 30.476562 -26.566406 30.71875 -26.015625 C 31.28125 -25.460938 31.585938 -25.1875 31.640625 -25.1875 Z M 43.640625 -7.015625 L 43.640625 -4.984375 C 43.765625 -5.046875 43.828125 -5.257812 43.828125 -5.625 C 43.828125 -5.875 43.828125 -6.085938 43.828125 -6.265625 C 43.828125 -6.453125 43.765625 -6.703125 43.640625 -7.015625 Z M 37.546875 0.09375 L 38.203125 0.09375 C 38.316406 0.09375 38.710938 -0.03125 39.390625 -0.28125 C 39.640625 -0.28125 39.882812 -0.351562 40.125 -0.5 C 40.375 -0.65625 40.6875 -0.859375 41.0625 -1.109375 C 41.488281 -1.347656 41.859375 -1.625 42.171875 -1.9375 Z M 19.09375 -18.546875 L 20.015625 -19.28125 L 19.84375 -20.015625 Z M 43.265625 -8.859375 L 43.265625 -9.21875 C 43.265625 -9.28125 43.296875 -9.40625 43.359375 -9.59375 C 43.421875 -9.78125 43.453125 -9.992188 43.453125 -10.234375 C 43.453125 -10.421875 43.570312 -10.664062 43.8125 -10.96875 C 44.0625 -11.28125 44.1875 -11.625 44.1875 -12 L 44.1875 -29.15625 C 44.1875 -34.195312 44.21875 -39.851562 44.28125 -46.125 C 44.039062 -45.757812 43.875 -44.976562 43.78125 -43.78125 C 43.6875 -42.582031 43.578125 -41.101562 43.453125 -39.34375 C 43.328125 -37.59375 43.265625 -35.609375 43.265625 -33.390625 C 43.265625 -31.179688 43.265625 -28.910156 43.265625 -26.578125 Z M 43.265625 -8.859375 "/></g></g></g><g fill="#000000" fill-opacity="1"><g transform="translate(384.418927, 64.118497)"><g><path d="M 56.375 29.890625 L -2.03125 29.890625 L -2.03125 -82.859375 L 56.375 -82.859375 Z M 38.84375 -35.34375 C 39.519531 -35.582031 40.085938 -36.238281 40.546875 -37.3125 C 41.015625 -38.394531 41.03125 -39.519531 40.59375 -40.6875 C 40.46875 -41.175781 40.082031 -41.878906 39.4375 -42.796875 C 38.789062 -43.722656 38.003906 -44.648438 37.078125 -45.578125 C 36.160156 -46.503906 35.148438 -47.363281 34.046875 -48.15625 C 32.941406 -48.957031 31.648438 -49.484375 30.171875 -49.734375 C 28.878906 -49.972656 27.140625 -49.96875 24.953125 -49.71875 C 22.773438 -49.476562 20.6875 -48.910156 18.6875 -48.015625 C 16.6875 -47.128906 14.960938 -45.867188 13.515625 -44.234375 C 12.066406 -42.609375 11.34375 -40.628906 11.34375 -38.296875 C 11.34375 -35.765625 11.679688 -33.757812 12.359375 -32.28125 C 13.035156 -30.8125 13.832031 -29.628906 14.75 -28.734375 C 15.675781 -27.847656 16.691406 -27.25 17.796875 -26.9375 C 18.910156 -26.632812 19.898438 -26.359375 20.765625 -26.109375 C 21.679688 -25.921875 22.832031 -25.71875 24.21875 -25.5 C 25.601562 -25.289062 27.015625 -25.046875 28.453125 -24.765625 C 29.898438 -24.492188 31.207031 -24.1875 32.375 -23.84375 C 33.550781 -23.507812 34.414062 -23.128906 34.96875 -22.703125 C 35.945312 -21.835938 36.648438 -20.523438 37.078125 -18.765625 C 37.515625 -17.015625 37.457031 -15.617188 36.90625 -14.578125 C 36.476562 -13.535156 35.398438 -12.304688 33.671875 -10.890625 C 31.953125 -9.472656 29.585938 -8.765625 26.578125 -8.765625 C 25.097656 -8.765625 23.894531 -8.835938 22.96875 -8.984375 C 22.050781 -9.140625 21.3125 -9.359375 20.75 -9.640625 C 20.195312 -9.921875 19.738281 -10.289062 19.375 -10.75 C 19.007812 -11.207031 18.578125 -11.679688 18.078125 -12.171875 C 17.222656 -13.222656 16.625 -13.945312 16.28125 -14.34375 C 15.945312 -14.75 15.78125 -15.226562 15.78125 -15.78125 C 15.78125 -16.269531 15.945312 -16.679688 16.28125 -17.015625 C 16.625 -17.359375 16.671875 -17.773438 16.421875 -18.265625 C 16.171875 -18.878906 15.890625 -19.203125 15.578125 -19.234375 C 15.273438 -19.265625 15.066406 -19.40625 14.953125 -19.65625 C 14.640625 -19.832031 14.390625 -20.078125 14.203125 -20.390625 C 14.023438 -20.703125 13.96875 -21.101562 14.03125 -21.59375 C 14.03125 -22.019531 14.148438 -22.421875 14.390625 -22.796875 C 14.453125 -23.035156 14.484375 -23.21875 14.484375 -23.34375 C 14.234375 -23.21875 13.957031 -23.125 13.65625 -23.0625 C 13.039062 -22.820312 12.734375 -22.484375 12.734375 -22.046875 C 12.609375 -21.742188 12.671875 -21.46875 12.921875 -21.21875 C 12.984375 -21.09375 13.015625 -21 13.015625 -20.9375 C 12.453125 -21.125 11.894531 -21.125 11.34375 -20.9375 C 10.976562 -20.695312 10.59375 -20.359375 10.1875 -19.921875 C 9.789062 -19.492188 9.59375 -18.789062 9.59375 -17.8125 C 9.59375 -16.882812 9.804688 -15.789062 10.234375 -14.53125 C 10.671875 -13.269531 11.332031 -12.007812 12.21875 -10.75 C 13.113281 -9.488281 14.113281 -8.363281 15.21875 -7.375 C 16.332031 -6.394531 17.59375 -5.597656 19 -4.984375 C 20.351562 -4.304688 21.890625 -3.890625 23.609375 -3.734375 C 25.335938 -3.578125 27.015625 -3.578125 28.640625 -3.734375 C 30.273438 -3.890625 31.800781 -4.226562 33.21875 -4.75 C 34.632812 -5.269531 35.769531 -5.867188 36.625 -6.546875 C 38.226562 -7.960938 39.628906 -9.71875 40.828125 -11.8125 C 42.023438 -13.90625 42.5 -16.054688 42.25 -18.265625 C 42.070312 -20.546875 41.394531 -22.484375 40.21875 -24.078125 C 39.050781 -25.679688 38.101562 -26.910156 37.375 -27.765625 C 36.507812 -28.628906 35.785156 -29.257812 35.203125 -29.65625 C 34.617188 -30.0625 34.203125 -30.203125 33.953125 -30.078125 C 33.890625 -29.890625 33.859375 -29.613281 33.859375 -29.25 C 33.859375 -29.1875 33.890625 -29.125 33.953125 -29.0625 C 33.273438 -28.9375 32.691406 -28.9375 32.203125 -29.0625 C 31.148438 -29.0625 30.070312 -29.25 28.96875 -29.625 C 28.101562 -29.925781 26.859375 -30.195312 25.234375 -30.4375 C 23.609375 -30.6875 22.269531 -31.085938 21.21875 -31.640625 C 20.113281 -32.140625 19.617188 -32.390625 19.734375 -32.390625 C 19.859375 -32.390625 19.613281 -32.445312 19 -32.5625 C 18.632812 -32.6875 17.925781 -33.207031 16.875 -34.125 C 15.832031 -35.050781 15.3125 -36.160156 15.3125 -37.453125 C 15.3125 -38.128906 15.617188 -38.757812 16.234375 -39.34375 C 16.847656 -39.9375 17.554688 -40.492188 18.359375 -41.015625 C 19.160156 -41.535156 19.988281 -41.992188 20.84375 -42.390625 C 21.707031 -42.796875 22.414062 -43.03125 22.96875 -43.09375 C 24.019531 -43.332031 25.453125 -43.515625 27.265625 -43.640625 C 29.078125 -43.765625 30.351562 -43.550781 31.09375 -43 C 31.957031 -42.5625 32.800781 -41.878906 33.625 -40.953125 C 34.457031 -40.035156 35.03125 -39.269531 35.34375 -38.65625 C 35.582031 -38.164062 35.671875 -37.671875 35.609375 -37.171875 C 35.546875 -36.679688 35.820312 -36.191406 36.4375 -35.703125 C 36.875 -35.273438 37.429688 -35.0625 38.109375 -35.0625 C 38.347656 -35.0625 38.59375 -35.15625 38.84375 -35.34375 Z M 31.1875 -33.3125 L 29.984375 -33.953125 C 29.304688 -34.265625 28.628906 -34.507812 27.953125 -34.6875 C 27.765625 -34.6875 27.300781 -34.765625 26.5625 -34.921875 C 25.832031 -35.078125 25.019531 -35.242188 24.125 -35.421875 C 23.238281 -35.609375 22.441406 -35.867188 21.734375 -36.203125 C 21.023438 -36.546875 20.578125 -36.875 20.390625 -37.1875 C 19.835938 -38.039062 19.957031 -38.757812 20.75 -39.34375 C 21.550781 -39.9375 22.414062 -40.234375 23.34375 -40.234375 L 27.03125 -40.234375 C 26.414062 -40.285156 25.769531 -40.40625 25.09375 -40.59375 C 24.601562 -40.65625 24.019531 -40.703125 23.34375 -40.734375 C 22.664062 -40.765625 22.113281 -40.78125 21.6875 -40.78125 C 20.695312 -40.71875 19.707031 -40.222656 18.71875 -39.296875 C 17.738281 -38.378906 17.46875 -37.335938 17.90625 -36.171875 C 18.144531 -35.492188 18.585938 -34.984375 19.234375 -34.640625 C 19.878906 -34.304688 20.570312 -34.0625 21.3125 -33.90625 C 22.050781 -33.75 22.773438 -33.65625 23.484375 -33.625 C 24.191406 -33.59375 24.726562 -33.578125 25.09375 -33.578125 C 25.34375 -33.460938 25.804688 -33.40625 26.484375 -33.40625 C 27.160156 -33.40625 27.867188 -33.40625 28.609375 -33.40625 C 29.523438 -33.40625 30.382812 -33.375 31.1875 -33.3125 Z M 39.484375 -34.046875 C 39.484375 -33.617188 39.664062 -33.265625 40.03125 -32.984375 C 40.40625 -32.703125 40.71875 -32.6875 40.96875 -32.9375 C 41.15625 -33.1875 41.597656 -33.675781 42.296875 -34.40625 C 43.003906 -35.144531 43.359375 -35.945312 43.359375 -36.8125 C 43.359375 -37.125 43.34375 -37.570312 43.3125 -38.15625 C 43.28125 -38.738281 43.238281 -39.335938 43.1875 -39.953125 C 43 -40.503906 42.84375 -41.117188 42.71875 -41.796875 C 42.84375 -41.796875 43 -41.859375 43.1875 -41.984375 C 43.488281 -42.285156 43.640625 -42.4375 43.640625 -42.4375 C 43.640625 -42.625 43.394531 -42.8125 42.90625 -43 L 42.25 -43.359375 C 42.195312 -43.421875 42.109375 -43.578125 41.984375 -43.828125 C 41.734375 -44.066406 41.671875 -44.3125 41.796875 -44.5625 C 41.921875 -44.8125 41.457031 -45.597656 40.40625 -46.921875 C 39.363281 -48.242188 38.441406 -49.148438 37.640625 -49.640625 C 36.722656 -50.191406 35.335938 -50.851562 33.484375 -51.625 C 31.640625 -52.394531 30.472656 -52.78125 29.984375 -52.78125 L 28.421875 -52.78125 C 28.109375 -52.78125 27.921875 -52.8125 27.859375 -52.875 C 29.765625 -52.195312 31.550781 -51.578125 33.21875 -51.015625 C 34.632812 -50.398438 35.957031 -49.722656 37.1875 -48.984375 C 38.414062 -48.253906 39.304688 -47.550781 39.859375 -46.875 C 40.285156 -46.132812 40.609375 -45.546875 40.828125 -45.109375 C 41.046875 -44.679688 41.273438 -44.285156 41.515625 -43.921875 C 41.703125 -43.546875 41.796875 -43.269531 41.796875 -43.09375 L 41.984375 -42.171875 L 42.34375 -41.421875 C 42.59375 -40.503906 42.78125 -39.675781 42.90625 -38.9375 C 43.09375 -38.257812 43.109375 -37.566406 42.953125 -36.859375 C 42.796875 -36.148438 42.535156 -35.644531 42.171875 -35.34375 C 41.554688 -34.90625 41.109375 -34.640625 40.828125 -34.546875 C 40.546875 -34.460938 40.285156 -34.328125 40.046875 -34.140625 Z M 39.03125 -29.796875 C 38.65625 -29.679688 38.804688 -29.4375 39.484375 -29.0625 L 40.5 -28.421875 C 41.488281 -27.128906 42.289062 -25.804688 42.90625 -24.453125 C 43.457031 -23.285156 43.898438 -21.882812 44.234375 -20.25 C 44.578125 -18.625 44.59375 -16.976562 44.28125 -15.3125 C 43.550781 -11.8125 42.492188 -9.382812 41.109375 -8.03125 C 39.722656 -6.675781 38.226562 -5.503906 36.625 -4.515625 C 34.96875 -3.597656 33.21875 -2.816406 31.375 -2.171875 C 29.53125 -1.523438 28.019531 -1.203125 26.84375 -1.203125 C 25.675781 -1.203125 24.460938 -1.242188 23.203125 -1.328125 C 21.941406 -1.421875 21.4375 -1.378906 21.6875 -1.203125 C 21.75 -1.203125 22.394531 -1.125 23.625 -0.96875 C 24.851562 -0.8125 26.296875 -0.796875 27.953125 -0.921875 C 29.617188 -1.046875 31.421875 -1.351562 33.359375 -1.84375 C 35.296875 -2.332031 37.09375 -3.164062 38.75 -4.34375 C 40.351562 -5.507812 41.613281 -6.921875 42.53125 -8.578125 C 43.457031 -10.242188 44.117188 -11.90625 44.515625 -13.5625 C 44.921875 -15.21875 45.164062 -16.753906 45.25 -18.171875 C 45.34375 -19.585938 45.300781 -20.664062 45.125 -21.40625 C 45 -22.082031 44.65625 -22.941406 44.09375 -23.984375 C 43.539062 -25.035156 42.925781 -25.988281 42.25 -26.84375 C 41.582031 -27.707031 40.953125 -28.460938 40.359375 -29.109375 C 39.773438 -29.753906 39.332031 -29.984375 39.03125 -29.796875 Z M 19.46875 -22.609375 C 18.851562 -22.671875 17.945312 -22.914062 16.75 -23.34375 C 15.550781 -23.769531 14.796875 -23.984375 14.484375 -23.984375 C 14.234375 -23.984375 14.304688 -23.828125 14.703125 -23.515625 C 15.109375 -23.210938 15.46875 -22.847656 15.78125 -22.421875 C 16.207031 -21.929688 16.773438 -20.757812 17.484375 -18.90625 C 18.191406 -17.0625 18.914062 -15.742188 19.65625 -14.953125 C 20.144531 -14.515625 20.726562 -14.234375 21.40625 -14.109375 C 22.082031 -13.992188 22.789062 -13.9375 23.53125 -13.9375 L 26.296875 -13.9375 C 25.742188 -14.113281 25.222656 -14.203125 24.734375 -14.203125 C 24.296875 -14.203125 23.863281 -14.203125 23.4375 -14.203125 C 23.007812 -14.203125 22.671875 -14.234375 22.421875 -14.296875 C 21.992188 -14.359375 21.515625 -14.5 20.984375 -14.71875 C 20.460938 -14.9375 20.019531 -15.164062 19.65625 -15.40625 C 19.34375 -15.65625 19 -16.300781 18.625 -17.34375 C 18.257812 -18.394531 17.988281 -19.226562 17.8125 -19.84375 C 17.5625 -20.332031 17.253906 -20.851562 16.890625 -21.40625 C 16.765625 -21.769531 16.609375 -21.984375 16.421875 -22.046875 C 16.671875 -21.984375 17.007812 -21.863281 17.4375 -21.6875 C 17.6875 -21.625 17.976562 -21.59375 18.3125 -21.59375 C 18.65625 -21.59375 18.882812 -21.59375 19 -21.59375 C 19.3125 -21.59375 19.648438 -21.5625 20.015625 -21.5 C 20.390625 -21.4375 20.820312 -21.40625 21.3125 -21.40625 L 23.15625 -21.40625 C 22.601562 -21.53125 22.113281 -21.710938 21.6875 -21.953125 C 21.25 -22.015625 20.800781 -22.109375 20.34375 -22.234375 C 19.882812 -22.359375 19.59375 -22.484375 19.46875 -22.609375 Z M 19.46875 -22.609375 "/></g></g></g><g fill="#000000" fill-opacity="1"><g transform="translate(439.868202, 64.118497)"><g><path d="M 50.65625 29.890625 L -7.84375 29.890625 L -7.84375 -82.859375 L 50.65625 -82.859375 Z M 20.109375 -41.328125 C 20.109375 -40.472656 20.398438 -39.472656 20.984375 -38.328125 C 21.566406 -37.191406 22.289062 -36.625 23.15625 -36.625 C 24.019531 -36.625 24.632812 -36.65625 25 -36.71875 C 25.375 -36.78125 25.679688 -37.054688 25.921875 -37.546875 C 26.109375 -38.097656 26.1875 -38.695312 26.15625 -39.34375 C 26.125 -39.988281 26.140625 -40.46875 26.203125 -40.78125 C 26.203125 -41.207031 26.429688 -41.554688 26.890625 -41.828125 C 27.359375 -42.109375 27.59375 -42.46875 27.59375 -42.90625 C 27.59375 -43.519531 27.46875 -44.007812 27.21875 -44.375 C 26.96875 -44.75 26.84375 -45.085938 26.84375 -45.390625 C 26.84375 -45.640625 26.976562 -45.960938 27.25 -46.359375 C 27.53125 -46.765625 27.796875 -47.117188 28.046875 -47.421875 C 28.171875 -47.734375 28.265625 -48.117188 28.328125 -48.578125 C 28.390625 -49.035156 28.359375 -49.359375 28.234375 -49.546875 C 27.984375 -49.796875 27.734375 -50.085938 27.484375 -50.421875 C 27.242188 -50.765625 26.816406 -50.84375 26.203125 -50.65625 C 25.710938 -50.65625 25.019531 -50.285156 24.125 -49.546875 C 23.238281 -48.804688 22.609375 -48.097656 22.234375 -47.421875 C 21.984375 -47.117188 21.71875 -46.628906 21.4375 -45.953125 C 21.164062 -45.273438 20.910156 -44.597656 20.671875 -43.921875 C 20.359375 -42.992188 20.171875 -42.128906 20.109375 -41.328125 Z M 28.234375 -43.546875 C 28.296875 -43.546875 28.359375 -43.394531 28.421875 -43.09375 C 28.597656 -42.90625 28.71875 -42.578125 28.78125 -42.109375 C 28.84375 -41.648438 28.722656 -41.050781 28.421875 -40.3125 C 28.296875 -39.519531 28.125 -38.90625 27.90625 -38.46875 C 27.695312 -38.039062 27.46875 -37.675781 27.21875 -37.375 L 26.578125 -36.8125 C 27.429688 -37.300781 28.046875 -37.914062 28.421875 -38.65625 C 28.972656 -39.332031 29.265625 -40.085938 29.296875 -40.921875 C 29.328125 -41.753906 28.972656 -42.628906 28.234375 -43.546875 Z M 27.59375 -51.671875 C 27.894531 -51.179688 28.257812 -50.6875 28.6875 -50.1875 C 29.425781 -49.445312 29.796875 -49.203125 29.796875 -49.453125 C 29.679688 -50.128906 29.222656 -50.648438 28.421875 -51.015625 Z M 27.59375 -51.671875 "/></g></g></g><g fill="#000000" fill-opacity="1"><g transform="translate(488.95145, 64.118497)"><g><path d="M 55.546875 29.890625 L -2.953125 29.890625 L -2.953125 -82.859375 L 55.546875 -82.859375 Z M 26.9375 -50.46875 C 25.644531 -50.46875 24.320312 -50.28125 22.96875 -49.90625 C 21.613281 -49.539062 20.257812 -48.878906 18.90625 -47.921875 C 17.5625 -46.972656 16.441406 -45.726562 15.546875 -44.1875 C 14.648438 -42.65625 14.144531 -40.75 14.03125 -38.46875 C 13.96875 -36.257812 14.164062 -34.597656 14.625 -33.484375 C 15.082031 -32.378906 15.617188 -31.566406 16.234375 -31.046875 C 16.847656 -30.523438 17.429688 -30.109375 17.984375 -29.796875 C 18.546875 -29.492188 18.828125 -29.097656 18.828125 -28.609375 C 18.828125 -28.109375 18.503906 -27.734375 17.859375 -27.484375 C 17.210938 -27.242188 16.566406 -26.800781 15.921875 -26.15625 C 15.273438 -25.507812 14.671875 -24.476562 14.109375 -23.0625 C 13.554688 -21.644531 13.28125 -19.617188 13.28125 -16.984375 C 13.34375 -14.210938 13.957031 -12.023438 15.125 -10.421875 C 16.300781 -8.828125 17.765625 -7.597656 19.515625 -6.734375 C 21.265625 -5.867188 23.125 -5.296875 25.09375 -5.015625 C 27.0625 -4.742188 28.847656 -4.609375 30.453125 -4.609375 C 31.921875 -4.609375 33.453125 -4.898438 35.046875 -5.484375 C 36.648438 -6.066406 38.066406 -6.894531 39.296875 -7.96875 C 40.535156 -9.050781 41.535156 -10.359375 42.296875 -11.890625 C 43.066406 -13.429688 43.453125 -15.128906 43.453125 -16.984375 C 43.453125 -18.890625 43.160156 -20.472656 42.578125 -21.734375 C 41.992188 -22.992188 41.363281 -24.082031 40.6875 -25 C 40.007812 -25.925781 39.378906 -26.648438 38.796875 -27.171875 C 38.210938 -27.691406 37.921875 -28.171875 37.921875 -28.609375 C 37.921875 -29.035156 38.132812 -29.507812 38.5625 -30.03125 C 39 -30.550781 39.460938 -31.242188 39.953125 -32.109375 C 40.441406 -32.972656 40.882812 -34.050781 41.28125 -35.34375 C 41.6875 -36.632812 41.890625 -38.171875 41.890625 -39.953125 C 41.890625 -41.859375 41.332031 -43.457031 40.21875 -44.75 C 39.113281 -46.039062 37.742188 -47.128906 36.109375 -48.015625 C 34.484375 -48.910156 32.8125 -49.539062 31.09375 -49.90625 C 29.375 -50.28125 27.988281 -50.46875 26.9375 -50.46875 Z M 34.78125 -31.46875 C 33.550781 -30.96875 31.9375 -30.765625 29.9375 -30.859375 C 27.9375 -30.953125 26.289062 -31.15625 25 -31.46875 C 24.507812 -31.644531 23.832031 -31.867188 22.96875 -32.140625 C 22.113281 -32.421875 21.300781 -32.835938 20.53125 -33.390625 C 19.757812 -33.953125 19.113281 -34.644531 18.59375 -35.46875 C 18.070312 -36.300781 17.8125 -37.269531 17.8125 -38.375 C 17.8125 -39.425781 18.269531 -40.332031 19.1875 -41.09375 C 20.113281 -41.863281 21.160156 -42.492188 22.328125 -42.984375 C 23.492188 -43.484375 24.738281 -43.835938 26.0625 -44.046875 C 27.382812 -44.265625 28.320312 -44.375 28.875 -44.375 C 29.675781 -44.375 30.597656 -44.21875 31.640625 -43.90625 C 32.691406 -43.601562 33.660156 -43.160156 34.546875 -42.578125 C 35.441406 -41.992188 36.242188 -41.269531 36.953125 -40.40625 C 37.660156 -39.550781 38.015625 -38.539062 38.015625 -37.375 C 38.015625 -36.195312 37.859375 -35.238281 37.546875 -34.5 C 37.242188 -33.769531 36.875 -33.125 36.4375 -32.5625 C 36.007812 -32.195312 35.457031 -31.832031 34.78125 -31.46875 Z M 39.3125 -17.4375 C 39.3125 -16.820312 39.15625 -16.066406 38.84375 -15.171875 C 38.53125 -14.285156 38.019531 -13.441406 37.3125 -12.640625 C 36.613281 -11.835938 35.644531 -11.128906 34.40625 -10.515625 C 33.175781 -9.898438 31.640625 -9.59375 29.796875 -9.59375 C 26.109375 -9.40625 23.09375 -10.25 20.75 -12.125 C 18.414062 -14.007812 17.128906 -16.363281 16.890625 -19.1875 C 16.828125 -20.601562 16.976562 -21.738281 17.34375 -22.59375 C 17.71875 -23.457031 18.195312 -24.132812 18.78125 -24.625 C 19.363281 -25.125 19.898438 -25.445312 20.390625 -25.59375 C 20.878906 -25.75 21.28125 -25.828125 21.59375 -25.828125 C 21.957031 -25.953125 22.523438 -26.015625 23.296875 -26.015625 C 24.066406 -26.015625 24.789062 -25.953125 25.46875 -25.828125 C 26.207031 -25.765625 27.160156 -25.734375 28.328125 -25.734375 C 29.492188 -25.734375 30.382812 -25.828125 31 -26.015625 C 31.675781 -26.265625 32.179688 -26.421875 32.515625 -26.484375 C 32.859375 -26.546875 33.242188 -26.515625 33.671875 -26.390625 C 33.921875 -26.265625 34.335938 -25.957031 34.921875 -25.46875 C 35.503906 -24.976562 36.101562 -24.316406 36.71875 -23.484375 C 37.332031 -22.648438 37.914062 -21.769531 38.46875 -20.84375 C 39.03125 -19.925781 39.3125 -19.003906 39.3125 -18.078125 Z M 43.921875 -10.15625 C 42.992188 -8.300781 41.835938 -6.894531 40.453125 -5.9375 C 39.066406 -4.988281 37.671875 -4.207031 36.265625 -3.59375 C 34.597656 -3.101562 32.84375 -2.734375 31 -2.484375 C 32.039062 -2.671875 33.054688 -2.828125 34.046875 -2.953125 C 34.910156 -3.203125 35.769531 -3.414062 36.625 -3.59375 C 37.488281 -3.78125 38.351562 -4.085938 39.21875 -4.515625 C 40.875 -5.253906 42.300781 -6.515625 43.5 -8.296875 C 44.695312 -10.085938 45.570312 -12.859375 46.125 -16.609375 C 46.3125 -18.453125 46.265625 -20.15625 45.984375 -21.71875 C 45.710938 -23.289062 45.269531 -24.660156 44.65625 -25.828125 C 43.976562 -27.179688 43.175781 -28.445312 42.25 -29.625 C 42.4375 -30.050781 42.71875 -30.445312 43.09375 -30.8125 C 43.707031 -31.738281 44.195312 -32.507812 44.5625 -33.125 C 44.6875 -33.425781 44.734375 -33.867188 44.703125 -34.453125 C 44.671875 -35.046875 44.65625 -35.679688 44.65625 -36.359375 C 44.59375 -37.035156 44.5625 -37.769531 44.5625 -38.5625 C 44.5625 -37.820312 44.5 -37.207031 44.375 -36.71875 C 44.25 -36.164062 44.15625 -35.613281 44.09375 -35.0625 C 44.039062 -34.507812 43.984375 -34.015625 43.921875 -33.578125 C 43.609375 -32.660156 43.050781 -31.707031 42.25 -30.71875 C 41.882812 -30.289062 41.519531 -29.800781 41.15625 -29.25 C 42.445312 -28.507812 43.457031 -27.398438 44.1875 -25.921875 C 44.925781 -24.453125 45.375 -22.820312 45.53125 -21.03125 C 45.6875 -19.25 45.640625 -17.421875 45.390625 -15.546875 C 45.148438 -13.671875 44.660156 -11.875 43.921875 -10.15625 Z M 21.125 -38.015625 C 21.0625 -38.378906 21.273438 -38.835938 21.765625 -39.390625 C 22.265625 -39.953125 22.820312 -40.476562 23.4375 -40.96875 C 24.175781 -41.394531 25.035156 -41.851562 26.015625 -42.34375 C 24.847656 -41.914062 23.800781 -41.519531 22.875 -41.15625 C 22.144531 -40.71875 21.46875 -40.222656 20.84375 -39.671875 C 20.226562 -39.117188 19.921875 -38.503906 19.921875 -37.828125 C 19.921875 -37.148438 20.289062 -36.550781 21.03125 -36.03125 C 21.769531 -35.507812 22.613281 -35.078125 23.5625 -34.734375 C 24.519531 -34.398438 25.429688 -34.1875 26.296875 -34.09375 C 27.160156 -34 27.5 -34.046875 27.3125 -34.234375 C 27.125 -34.472656 26.738281 -34.703125 26.15625 -34.921875 C 25.570312 -35.140625 24.925781 -35.414062 24.21875 -35.75 C 23.507812 -36.09375 22.847656 -36.445312 22.234375 -36.8125 C 21.617188 -37.1875 21.25 -37.585938 21.125 -38.015625 Z M 22.140625 -15.125 C 22.078125 -15.375 21.925781 -15.625 21.6875 -15.875 C 21.25 -16.300781 21 -16.820312 20.9375 -17.4375 C 20.757812 -17.863281 20.710938 -18.398438 20.796875 -19.046875 C 20.890625 -19.691406 20.96875 -20.320312 21.03125 -20.9375 C 21.09375 -21.738281 21.125 -22.507812 21.125 -23.25 C 20.082031 -22.144531 19.53125 -21.128906 19.46875 -20.203125 C 19.40625 -19.285156 19.585938 -18.457031 20.015625 -17.71875 C 20.453125 -16.914062 21.160156 -16.050781 22.140625 -15.125 Z M 25.5625 -12.265625 C 25.5625 -12.328125 25.53125 -12.484375 25.46875 -12.734375 C 25.34375 -12.984375 25.125 -13.226562 24.8125 -13.46875 C 24.570312 -13.71875 24.34375 -13.84375 24.125 -13.84375 C 23.90625 -13.84375 23.675781 -13.90625 23.4375 -14.03125 C 23.0625 -14.03125 22.847656 -14.085938 22.796875 -14.203125 C 23.097656 -13.710938 23.460938 -13.347656 23.890625 -13.109375 C 24.816406 -12.429688 25.375 -12.148438 25.5625 -12.265625 Z M 25.5625 -12.265625 "/></g></g></g><g fill="#000000" fill-opacity="1"><g transform="translate(543.754912, 64.118497)"><g><path d="M 57.015625 29.890625 L -1.46875 29.890625 L -1.46875 -82.859375 L 57.015625 -82.859375 Z M 38.46875 -47.890625 C 38.46875 -48.804688 38.128906 -49.769531 37.453125 -50.78125 C 36.773438 -51.800781 36.039062 -52.3125 35.25 -52.3125 C 34.382812 -52.3125 33.765625 -52.140625 33.390625 -51.796875 C 33.023438 -51.460938 32.382812 -51.203125 31.46875 -51.015625 C 31.03125 -50.960938 30.347656 -50.890625 29.421875 -50.796875 C 28.503906 -50.703125 27.503906 -50.640625 26.421875 -50.609375 C 25.347656 -50.578125 24.347656 -50.546875 23.421875 -50.515625 C 22.503906 -50.484375 21.832031 -50.46875 21.40625 -50.46875 C 20.664062 -50.46875 19.769531 -50.484375 18.71875 -50.515625 C 17.675781 -50.546875 16.910156 -50.5625 16.421875 -50.5625 C 15.929688 -50.5625 15.671875 -50.453125 15.640625 -50.234375 C 15.609375 -50.023438 15.59375 -49.394531 15.59375 -48.34375 C 15.59375 -47.726562 15.609375 -46.585938 15.640625 -44.921875 C 15.671875 -43.265625 15.6875 -41.515625 15.6875 -39.671875 C 15.6875 -37.828125 15.734375 -36.148438 15.828125 -34.640625 C 15.921875 -33.140625 15.96875 -32.234375 15.96875 -31.921875 C 15.96875 -31.304688 15.859375 -30.769531 15.640625 -30.3125 C 15.421875 -29.851562 15.40625 -29.4375 15.59375 -29.0625 C 15.84375 -28.507812 16.8125 -28.382812 18.5 -28.6875 C 20.1875 -29 21.617188 -29.25 22.796875 -29.4375 C 23.410156 -29.5625 24.4375 -29.625 25.875 -29.625 C 27.320312 -29.625 28.84375 -29.328125 30.4375 -28.734375 C 32.039062 -28.148438 33.394531 -27.195312 34.5 -25.875 C 35.613281 -24.550781 36.171875 -22.597656 36.171875 -20.015625 C 36.171875 -17.367188 35.566406 -15.320312 34.359375 -13.875 C 33.160156 -12.4375 31.835938 -11.363281 30.390625 -10.65625 C 28.953125 -9.945312 27.554688 -9.53125 26.203125 -9.40625 C 24.847656 -9.28125 23.957031 -9.21875 23.53125 -9.21875 C 23.21875 -9.21875 22.644531 -9.359375 21.8125 -9.640625 C 20.988281 -9.921875 20.175781 -10.226562 19.375 -10.5625 C 18.570312 -10.90625 17.832031 -11.226562 17.15625 -11.53125 C 16.476562 -11.84375 16.109375 -12.117188 16.046875 -12.359375 C 15.804688 -12.910156 15.53125 -13.523438 15.21875 -14.203125 C 14.914062 -14.878906 14.488281 -15.554688 13.9375 -16.234375 C 13.5 -16.785156 13.003906 -17.171875 12.453125 -17.390625 C 11.898438 -17.609375 11.441406 -17.5625 11.078125 -17.25 C 10.703125 -17.007812 10.578125 -16.59375 10.703125 -16 C 10.828125 -15.414062 11.007812 -14.785156 11.25 -14.109375 C 11.5 -13.742188 11.898438 -13.082031 12.453125 -12.125 C 13.003906 -11.175781 13.800781 -10.128906 14.84375 -8.984375 C 15.894531 -7.847656 17.21875 -6.847656 18.8125 -5.984375 C 20.414062 -5.128906 22.414062 -4.703125 24.8125 -4.703125 C 27.21875 -4.703125 29.390625 -5.238281 31.328125 -6.3125 C 33.265625 -7.394531 34.9375 -8.734375 36.34375 -10.328125 C 37.757812 -11.929688 38.835938 -13.609375 39.578125 -15.359375 C 40.316406 -17.109375 40.6875 -18.785156 40.6875 -20.390625 C 40.6875 -23.097656 39.929688 -25.757812 38.421875 -28.375 C 36.921875 -30.988281 35.0625 -32.878906 32.84375 -34.046875 C 30.507812 -35.210938 28.664062 -35.875 27.3125 -36.03125 C 25.957031 -36.1875 24.695312 -36.109375 23.53125 -35.796875 C 22.976562 -35.554688 22.421875 -35.25 21.859375 -34.875 C 21.304688 -34.507812 20.84375 -34.171875 20.46875 -33.859375 C 20.101562 -33.554688 19.753906 -33.34375 19.421875 -33.21875 C 19.085938 -33.09375 18.828125 -33.1875 18.640625 -33.5 C 18.390625 -33.863281 18.25 -34.472656 18.21875 -35.328125 C 18.1875 -36.191406 18.171875 -37.128906 18.171875 -38.140625 C 18.171875 -39.160156 18.1875 -40.128906 18.21875 -41.046875 C 18.25 -41.972656 18.265625 -42.65625 18.265625 -43.09375 C 18.265625 -43.945312 18.1875 -44.375 18.03125 -44.375 C 17.882812 -44.375 17.960938 -44.46875 18.265625 -44.65625 C 18.390625 -44.84375 18.988281 -44.953125 20.0625 -44.984375 C 21.144531 -45.015625 22.316406 -45.03125 23.578125 -45.03125 C 24.835938 -45.03125 26.066406 -45.015625 27.265625 -44.984375 C 28.460938 -44.953125 29.304688 -44.9375 29.796875 -44.9375 C 30.722656 -44.9375 32.015625 -44.8125 33.671875 -44.5625 C 35.335938 -44.3125 36.445312 -44.3125 37 -44.5625 C 37.300781 -44.625 37.671875 -45.207031 38.109375 -46.3125 Z M 21.59375 -42.25 C 21.46875 -41.519531 21.40625 -40.875 21.40625 -40.3125 C 21.28125 -39.820312 21.21875 -39.347656 21.21875 -38.890625 C 21.21875 -38.429688 21.28125 -38.203125 21.40625 -38.203125 C 21.53125 -38.078125 21.945312 -38.101562 22.65625 -38.28125 C 23.363281 -38.46875 24.191406 -38.578125 25.140625 -38.609375 C 26.097656 -38.640625 27.175781 -38.65625 28.375 -38.65625 C 29.570312 -38.65625 30.632812 -38.441406 31.5625 -38.015625 C 32.539062 -37.585938 33.597656 -36.988281 34.734375 -36.21875 C 35.867188 -35.445312 36.957031 -34.550781 38 -33.53125 C 39.050781 -32.519531 39.945312 -31.472656 40.6875 -30.390625 C 41.425781 -29.316406 41.976562 -28.320312 42.34375 -27.40625 L 43.359375 -23.34375 C 43.242188 -25.375 42.785156 -27.28125 41.984375 -29.0625 C 41.367188 -30.539062 40.414062 -32.109375 39.125 -33.765625 C 37.832031 -35.429688 35.984375 -36.847656 33.578125 -38.015625 C 31.242188 -39.179688 29.304688 -39.914062 27.765625 -40.21875 C 26.234375 -40.53125 25.019531 -40.703125 24.125 -40.734375 C 23.238281 -40.765625 22.609375 -40.828125 22.234375 -40.921875 C 21.867188 -41.015625 21.65625 -41.457031 21.59375 -42.25 Z M 22.796875 -15.125 C 23.035156 -15.1875 23.0625 -15.21875 22.875 -15.21875 C 22.695312 -15.21875 22.40625 -15.265625 22 -15.359375 C 21.601562 -15.453125 21.15625 -15.578125 20.65625 -15.734375 C 20.164062 -15.890625 19.769531 -16.085938 19.46875 -16.328125 C 18.789062 -17.191406 17.882812 -18.019531 16.75 -18.8125 C 15.613281 -19.613281 15.164062 -19.863281 15.40625 -19.5625 C 15.53125 -19.5 15.789062 -19.191406 16.1875 -18.640625 C 16.59375 -18.085938 17.132812 -17.503906 17.8125 -16.890625 C 18.488281 -16.273438 19.253906 -15.78125 20.109375 -15.40625 C 20.972656 -15.039062 21.867188 -14.945312 22.796875 -15.125 Z M 19.46875 -25.65625 C 19.59375 -25.65625 19.945312 -25.726562 20.53125 -25.875 C 21.113281 -26.03125 21.726562 -26.171875 22.375 -26.296875 C 23.019531 -26.421875 23.523438 -26.570312 23.890625 -26.75 C 24.265625 -26.9375 24.421875 -27.0625 24.359375 -27.125 C 24.234375 -27.125 23.910156 -27.046875 23.390625 -26.890625 C 22.867188 -26.742188 22.269531 -26.578125 21.59375 -26.390625 C 20.914062 -26.203125 20.34375 -26.03125 19.875 -25.875 C 19.414062 -25.726562 19.28125 -25.65625 19.46875 -25.65625 Z M 43.546875 -21.5 C 43.734375 -20.082031 43.671875 -18.789062 43.359375 -17.625 C 43.117188 -16.519531 42.71875 -15.363281 42.15625 -14.15625 C 41.601562 -12.957031 40.898438 -11.835938 40.046875 -10.796875 C 39.242188 -9.742188 38.257812 -8.816406 37.09375 -8.015625 C 35.925781 -7.222656 34.878906 -6.488281 33.953125 -5.8125 C 32.722656 -5.070312 31.554688 -4.457031 30.453125 -3.96875 C 32.597656 -4.394531 34.6875 -5.222656 36.71875 -6.453125 C 38.195312 -7.679688 39.671875 -9.445312 41.140625 -11.75 C 42.617188 -14.0625 43.421875 -17.3125 43.546875 -21.5 Z M 43.546875 -21.5 "/></g></g></g></svg>
